<?xml version="1.0" encoding="UTF-8" standalone="no"?>
<!DOCTYPE svg PUBLIC "-//W3C//DTD SVG 1.1//EN" "http://www.w3.org/Graphics/SVG/1.1/DTD/svg11.dtd">
<svg xmlns="http://www.w3.org/2000/svg" version="1.1" viewBox="0 0 1024 576">
<g stroke-width="2.00" fill="none" stroke-linecap="butt">
<path stroke="#ba596d" vector-effect="non-scaling-stroke" d="
  M 1024.00 14.06
  Q 1014.15 6.08 1000.50 3.50
  Q 993.03 2.09 988.34 2.06"
/>
<path stroke="#d45883" vector-effect="non-scaling-stroke" d="
  M 988.34 2.06
  Q 978.22 2.15 968.56 7.56
  Q 961.51 11.52 956.89 17.52
  Q 955.54 19.28 949.25 30.53
  Q 929.08 66.59 909.00 102.71"
/>
<path stroke="#6f596a" vector-effect="non-scaling-stroke" d="
  M 909.00 102.71
  Q 906.60 105.47 906.75 108.97"
/>
<path stroke="#dbc58e" vector-effect="non-scaling-stroke" d="
  M 906.75 108.97
  Q 896.61 132.09 886.31 150.06
  Q 869.81 178.86 863.25 191.00
  Q 857.55 201.56 855.29 207.50"
/>
<path stroke="#dabd85" vector-effect="non-scaling-stroke" d="
  M 855.29 207.50
  Q 846.82 225.28 855.22 243.17"
/>
<path stroke="#e57e7d" vector-effect="non-scaling-stroke" d="
  M 855.22 243.17
  Q 857.87 253.55 866.31 260.94
  Q 875.61 269.07 887.27 271.67
  Q 897.08 273.86 907.02 273.08
  Q 910.98 272.77 916.86 271.22
  Q 921.71 269.95 926.57 268.69"
/>
<path stroke="#99aab2" vector-effect="non-scaling-stroke" d="
  M 926.57 268.69
  Q 928.96 267.99 931.07 266.71
  Q 933.53 265.21 935.18 264.12
  Q 938.95 261.64 941.25 257.25
  Q 943.43 253.09 947.06 247.44
  Q 950.21 242.54 952.65 237.54
  Q 961.11 220.25 971.58 204.09
  Q 973.17 201.64 974.81 197.66
  Q 976.80 192.83 979.88 188.62
  Q 983.38 183.83 984.33 181.83
  Q 986.72 176.77 987.96 171.25"
/>
<path stroke="#d7666d" vector-effect="non-scaling-stroke" d="
  M 987.96 171.25
  Q 992.25 161.94 997.75 153.29"
/>
<path stroke="#695f62" vector-effect="non-scaling-stroke" d="
  M 997.75 153.29
  Q 998.27 153.10 1000.06 151.56
  Q 1002.19 149.74 1001.46 147.50"
/>
<path stroke="#ba596d" vector-effect="non-scaling-stroke" d="
  M 1001.46 147.50
  Q 1005.03 142.99 1006.04 137.39
  Q 1006.05 137.32 1006.31 134.60
  Q 1006.70 130.47 1009.63 127.38
  Q 1011.70 125.20 1012.81 123.06
  Q 1016.78 115.41 1024.00 100.81"
/>
<path stroke="#e57e7d" vector-effect="non-scaling-stroke" d="
  M 970.33 576.01
  Q 974.56 550.93 961.46 529.35
  Q 958.09 523.78 949.06 509.94
  Q 915.74 458.82 882.26 407.79
  Q 882.21 407.72 880.15 404.78
  Q 877.17 400.56 875.87 395.54"
/>
<path stroke="#665857" vector-effect="non-scaling-stroke" d="
  M 875.87 395.54
  L 878.38 397.16
  A 0.73 0.71 29.4 0 0 879.44 396.88
  Q 880.24 395.19 879.77 393.73
  Q 879.63 393.31 878.47 391.08
  Q 877.66 389.53 876.41 388.39"
/>
<path stroke="#825f73" vector-effect="non-scaling-stroke" d="
  M 876.41 388.39
  Q 873.71 383.08 868.94 378.31
  Q 865.80 375.18 863.20 370.93
  Q 859.48 364.86 859.46 364.83
  Q 846.64 345.53 833.67 326.32
  Q 833.59 326.21 831.72 322.92
  Q 830.68 321.10 829.10 319.65
  Q 827.26 317.97 825.75 315.25
  Q 821.79 308.14 816.06 300.69
  Q 814.13 298.16 811.94 294.30
  Q 809.71 290.36 808.02 288.08
  Q 805.84 285.12 803.54 282.25"
/>
<path stroke="#755d67" vector-effect="non-scaling-stroke" d="
  M 803.54 282.25
  Q 801.71 279.47 799.16 277.35
  Q 796.30 274.97 793.54 272.49
  Q 791.29 270.46 788.91 269.22
  Q 786.37 267.89 783.80 266.66"
/>
<path stroke="#825f73" vector-effect="non-scaling-stroke" d="
  M 783.80 266.66
  Q 779.98 265.03 776.29 263.19
  Q 772.61 261.36 769.37 260.76
  Q 764.64 259.89 761.25 259.75
  Q 718.14 257.98 690.06 288.56
  Q 682.19 297.14 676.98 310.00"
/>
<path stroke="#665857" vector-effect="non-scaling-stroke" d="
  M 676.98 310.00
  Q 672.06 320.95 671.25 334.50
  Q 670.57 345.88 670.98 354.62
  Q 671.16 358.37 672.28 362.78
  Q 673.31 366.79 674.31 370.81
  Q 674.91 373.21 676.46 375.39
  Q 679.56 379.76 681.31 383.44
  Q 683.97 389.00 685.81 392.64
  Q 686.64 394.29 690.71 401.01
  Q 692.67 404.24 695.56 409.44
  Q 701.96 420.91 708.33 432.39
  Q 710.40 436.14 714.39 442.51
  Q 718.09 448.41 720.19 452.81
  Q 723.02 458.75 725.56 462.44
  Q 727.99 465.95 729.69 468.88
  Q 733.02 474.62 733.56 475.46
  Q 737.43 481.45 741.39 487.39
  Q 742.83 489.55 744.95 491.04
  Q 747.85 493.10 750.64 495.30
  Q 753.06 497.21 755.34 497.76
  Q 757.98 498.39 760.71 498.50"
/>
<path stroke="#e2be96" vector-effect="non-scaling-stroke" d="
  M 760.71 498.50
  Q 771.20 516.86 783.32 534.18
  Q 797.93 555.06 812.48 575.97"
/>
<path stroke="#89aab7" vector-effect="non-scaling-stroke" d="
  M 452.95 576.00
  Q 454.75 563.30 454.25 557.25
  Q 453.51 548.28 448.44 534.81
  Q 444.33 523.91 434.84 513.64"
/>
<path stroke="#ddab99" vector-effect="non-scaling-stroke" d="
  M 434.84 513.64
  Q 436.82 514.23 437.34 512.04
  A 0.78 0.71 26.1 0 0 437.03 511.26
  Q 426.03 503.13 413.79 497.00"
/>
<path stroke="#d6aba2" vector-effect="non-scaling-stroke" d="
  M 413.79 497.00
  Q 408.11 493.80 402.18 491.10
  Q 398.02 489.20 393.65 486.86
  Q 389.45 484.61 385.09 482.67
  Q 381.38 481.01 378.90 479.70
  Q 375.87 478.10 372.84 476.50
  Q 372.76 476.45 364.45 472.29
  Q 357.65 468.88 348.94 463.56
  Q 343.12 460.01 335.45 457.69
  Q 332.67 456.85 328.37 455.13
  Q 324.93 453.76 321.13 452.92
  Q 319.18 452.49 317.57 451.29
  Q 315.82 449.99 313.54 451.50"
/>
<path stroke="#6b595b" vector-effect="non-scaling-stroke" d="
  M 313.54 451.50
  Q 309.87 446.49 304.22 444.42
  Q 299.61 442.72 299.51 442.68
  Q 295.90 441.23 292.06 440.44
  Q 291.24 440.27 290.00 438.96"
/>
<path stroke="#d05880" vector-effect="non-scaling-stroke" d="
  M 290.00 438.96
  Q 238.54 412.39 186.39 387.19
  Q 183.25 385.67 175.38 382.16
  Q 168.16 378.92 164.56 376.69
  Q 159.60 373.61 153.25 372.50
  Q 132.70 368.92 114.69 378.44
  Q 102.45 384.90 94.71 394.00"
/>
<path stroke="#ad5a7b" vector-effect="non-scaling-stroke" d="
  M 94.71 394.00
  Q 91.76 396.48 87.50 402.25
  Q 75.82 418.08 72.56 435.81
  Q 68.88 455.88 79.42 475.13
  Q 82.22 480.24 85.35 485.17
  Q 88.88 490.72 93.72 495.09
  Q 98.15 499.09 99.50 500.21
  Q 102.30 502.55 105.94 504.56
  Q 108.88 506.19 114.08 509.56
  Q 118.45 512.40 122.21 514.57
  Q 140.54 525.12 158.60 536.13
  Q 186.80 553.32 215.37 569.91"
/>
<path stroke="#77585d" vector-effect="non-scaling-stroke" d="
  M 215.37 569.91
  L 223.50 574.29"
/>
<path stroke="#6694a9" vector-effect="non-scaling-stroke" d="
  M 223.50 574.29
  Q 225.91 576.01 228.94 576.00"
/>
<path stroke="#e57072" vector-effect="non-scaling-stroke" d="
  M 99.50 9.71
  Q 89.46 12.55 84.31 19.56
  Q 80.08 25.32 76.85 33.39
  Q 74.74 38.64 72.54 48.37
  Q 65.36 80.04 57.38 111.46"
/>
<path stroke="#675959" vector-effect="non-scaling-stroke" d="
  M 57.38 111.46
  Q 52.96 121.04 51.04 131.37
  Q 49.17 141.46 49.14 141.57
  Q 42.95 169.97 36.60 198.32
  Q 34.72 206.73 33.57 215.26
  Q 31.57 230.00 39.59 242.60"
/>
<path stroke="#846574" vector-effect="non-scaling-stroke" d="
  M 39.59 242.60
  Q 43.21 249.66 50.94 254.56
  Q 59.64 260.08 67.62 262.52
  Q 79.78 266.24 91.73 261.95
  Q 99.24 259.25 105.78 254.84
  Q 110.83 251.42 114.76 246.17
  Q 121.73 236.85 124.50 227.50
  Q 130.26 208.06 135.06 177.56
  Q 136.45 168.74 142.96 139.00"
/>
<path stroke="#675959" vector-effect="non-scaling-stroke" d="
  M 142.96 139.00
  L 144.79 133.15
  A 1.10 1.02 -4.5 0 1 145.40 132.49
  L 147.83 131.45
  Q 148.50 131.16 147.80 130.93
  Q 145.39 130.13 143.54 130.75"
/>
<path stroke="#e1be96" vector-effect="non-scaling-stroke" d="
  M 143.54 130.75
  Q 144.83 117.78 147.37 105.02
  Q 151.16 85.97 151.25 85.41
  Q 154.59 66.17 157.32 46.52
  A 3.00 2.25 -65.9 0 0 156.85 44.45
  L 151.97 38.26"
/>
<path stroke="#e38d81" vector-effect="non-scaling-stroke" d="
  M 151.97 38.26
  Q 147.04 19.68 130.65 10.80"
/>
<path stroke="#e57e7d" vector-effect="non-scaling-stroke" d="
  M 130.65 10.80
  Q 125.51 8.97 118.06 7.44
  Q 108.11 5.39 99.50 9.71"
/>
<path stroke="#fd5d52" vector-effect="non-scaling-stroke" d="
  M 130.65 10.80
  Q 127.51 14.45 124.81 17.56
  Q 121.31 21.61 120.23 26.59
  Q 119.57 29.64 119.61 36.43
  Q 119.66 45.37 122.06 51.69
  Q 123.98 56.74 130.63 65.75"
/>
<path stroke="#fb8e66" vector-effect="non-scaling-stroke" d="
  M 130.63 65.75
  Q 127.24 87.38 124.00 109.00
  Q 122.09 121.76 121.71 130.50"
/>
<path stroke="#81282a" vector-effect="non-scaling-stroke" d="
  M 121.71 130.50
  Q 95.42 126.47 68.72 118.71"
/>
<path stroke="#ff4042" vector-effect="non-scaling-stroke" d="
  M 68.72 118.71
  Q 77.15 83.14 84.70 47.54
  Q 84.72 47.43 86.08 39.93
  Q 88.05 29.01 93.57 19.39
  Q 94.61 17.58 96.51 15.60
  Q 98.18 13.85 99.75 12.00
  Q 100.88 10.67 99.50 9.71"
/>
<path stroke="#f99d6b" vector-effect="non-scaling-stroke" d="
  M 151.97 38.26
  Q 143.64 37.61 135.18 38.39
  A 0.65 0.61 -87.5 0 0 134.62 38.93
  L 130.63 65.75"
/>
<path stroke="#7d6943" vector-effect="non-scaling-stroke" d="
  M 143.54 130.75
  L 142.44 133.29
  A 0.73 0.70 -76.6 0 1 141.76 133.73
  Q 131.55 133.28 121.71 130.50"
/>
<path stroke="#811b1f" vector-effect="non-scaling-stroke" d="
  M 68.72 118.71
  Q 64.98 117.45 60.07 115.91
  Q 56.98 114.94 57.38 111.46"
/>
<path stroke="#201021" vector-effect="non-scaling-stroke" d="
  M 142.96 139.00
  Q 135.76 137.50 125.25 136.00
  Q 108.14 133.57 86.26 129.44
  Q 83.53 128.92 73.50 127.75
  Q 70.09 127.35 67.91 128.02
  A 1.38 1.19 -80.1 0 0 67.18 128.62
  Q 63.19 135.36 61.53 142.98
  Q 60.33 148.42 60.32 148.49
  Q 50.61 187.67 45.50 220.75
  Q 43.56 233.34 39.59 242.60"
/>
<path stroke="#667e90" vector-effect="non-scaling-stroke" d="
  M 326.21 185.75
  L 320.00 188.46"
/>
<path stroke="#e55893" vector-effect="non-scaling-stroke" d="
  M 320.00 188.46
  Q 310.83 192.72 301.54 196.69
  Q 293.50 200.13 283.35 205.01
  Q 276.24 208.43 268.99 211.55
  Q 261.53 214.77 254.82 217.97
  Q 247.80 221.32 240.67 224.44
  Q 236.77 226.14 234.29 228.39
  Q 223.45 238.23 220.50 252.00
  Q 217.50 266.00 223.69 279.81
  Q 231.36 296.97 248.44 303.06
  Q 255.39 305.54 259.85 305.61"
/>
<path stroke="#e47688" vector-effect="non-scaling-stroke" d="
  M 259.85 305.61
  Q 266.54 307.07 272.82 305.32
  Q 273.67 305.09 284.59 300.62
  Q 293.00 297.18 305.81 291.31
  Q 349.49 271.32 363.06 264.76"
/>
<path stroke="#667e90" vector-effect="non-scaling-stroke" d="
  M 363.06 264.76
  L 367.29 262.75"
/>
<path stroke="#e55893" vector-effect="non-scaling-stroke" d="
  M 367.29 262.75
  Q 412.81 241.51 421.69 237.44
  Q 428.45 234.33 433.84 230.11
  Q 436.39 228.11 438.13 225.01
  Q 443.54 215.42 446.56 206.31
  Q 450.26 195.19 446.96 184.82
  Q 444.13 175.94 435.96 168.43
  Q 424.81 158.18 409.04 155.26
  Q 400.91 153.75 392.44 156.69
  Q 376.95 162.05 363.83 168.16
  Q 351.82 173.75 351.71 173.80
  Q 338.88 179.61 326.21 185.75"
/>
<path stroke="#802876" vector-effect="non-scaling-stroke" d="
  M 367.29 262.75
  Q 354.84 241.47 352.81 237.44
  Q 347.62 227.12 341.88 217.09
  Q 333.17 201.86 326.21 185.75"
/>
<path stroke="#7f466b" vector-effect="non-scaling-stroke" d="
  M 363.06 264.76
  Q 352.62 245.36 346.94 235.81
  Q 345.53 233.44 342.89 232.69"
/>
<path stroke="#802876" vector-effect="non-scaling-stroke" d="
  M 342.89 232.69
  Q 341.04 227.13 338.53 222.24
  Q 334.87 215.12 334.83 215.03
  Q 328.19 201.32 320.00 188.46"
/>
<path stroke="#fe206e" vector-effect="non-scaling-stroke" d="
  M 342.89 232.69
  Q 305.23 250.94 266.53 266.73
  Q 261.13 268.94 255.95 271.60
  Q 253.34 272.94 251.43 275.18
  Q 249.59 277.33 247.57 279.31
  Q 246.31 280.54 246.75 282.24
  Q 248.61 289.53 252.25 296.05
  Q 253.36 298.04 256.00 300.84
  Q 258.12 303.09 259.85 305.61"
/>
<path stroke="#6694a9" vector-effect="non-scaling-stroke" d="
  M 486.00 254.54
  Q 482.39 260.89 477.25 266.04"
/>
<path stroke="#6d5e62" vector-effect="non-scaling-stroke" d="
  M 477.25 266.04
  Q 473.56 268.59 473.28 272.51"
/>
<path stroke="#aa5a7b" vector-effect="non-scaling-stroke" d="
  M 473.28 272.51
  Q 468.81 280.58 467.56 282.56
  Q 447.14 315.05 426.97 347.69
  Q 426.87 347.85 421.12 356.50
  Q 418.18 360.93 415.84 365.68
  Q 411.71 374.08 409.62 380.23
  Q 406.91 388.23 406.80 396.76
  Q 406.74 401.50 408.13 407.62
  Q 409.48 413.57 411.00 418.25
  Q 416.62 435.49 432.37 445.16
  Q 441.11 450.52 448.81 452.19
  Q 464.93 455.67 482.50 450.96"
/>
<path stroke="#b67692" vector-effect="non-scaling-stroke" d="
  M 482.50 450.96
  Q 492.04 448.10 500.46 442.82
  Q 501.74 442.03 502.61 440.75
  Q 503.47 439.49 504.32 438.21
  Q 505.42 436.55 507.19 434.73
  Q 510.51 431.32 513.75 426.50
  Q 524.32 410.79 529.52 402.49
  Q 545.60 376.82 561.68 351.15"
/>
<path stroke="#aa5a7b" vector-effect="non-scaling-stroke" d="
  M 561.68 351.15
  Q 568.89 341.42 574.75 330.79"
/>
<path stroke="#6694a9" vector-effect="non-scaling-stroke" d="
  M 574.75 330.79
  L 581.79 320.00"
/>
<path stroke="#86a6b5" vector-effect="non-scaling-stroke" d="
  M 581.79 320.00
  Q 607.45 281.40 631.46 241.75"
/>
<path stroke="#7aa1b1" vector-effect="non-scaling-stroke" d="
  M 631.46 241.75
  Q 637.45 231.26 638.19 228.44
  Q 639.05 225.14 638.35 215.33"
/>
<path stroke="#81aab8" vector-effect="non-scaling-stroke" d="
  M 638.35 215.33
  Q 639.52 193.15 622.44 179.77
  Q 617.78 176.12 613.25 172.29"
/>
<path stroke="#d8ac9f" vector-effect="non-scaling-stroke" d="
  M 613.25 172.29
  Q 614.57 170.85 614.73 169.00
  A 0.87 0.81 19.5 0 0 614.33 168.23
  Q 602.25 160.63 591.06 157.94
  Q 584.18 156.28 576.13 156.83
  Q 567.57 157.41 561.40 158.88
  Q 550.01 161.58 541.31 170.05
  Q 536.36 174.87 529.94 183.19
  Q 519.59 196.59 514.00 205.28
  Q 508.22 214.26 502.46 223.26
  Q 498.56 229.34 493.54 236.36
  Q 488.90 242.86 484.45 249.36
  A 0.99 0.94 52.8 0 0 484.35 250.23
  L 486.00 254.54"
/>
<path stroke="#8ea8ab" vector-effect="non-scaling-stroke" d="
  M 613.25 172.29
  Q 598.43 160.73 578.25 160.75
  Q 567.03 160.76 557.78 163.92
  Q 553.49 165.38 549.66 167.88
  Q 545.71 170.46 542.56 173.56
  Q 535.45 180.56 529.50 189.71"
/>
<path stroke="#73929c" vector-effect="non-scaling-stroke" d="
  M 529.50 189.71
  Q 515.27 210.07 509.81 218.56
  Q 498.15 236.71 486.00 254.54"
/>
<path stroke="#309dbd" vector-effect="non-scaling-stroke" d="
  M 638.35 215.33
  Q 633.19 207.17 626.11 200.68"
/>
<path stroke="#1c90b5" vector-effect="non-scaling-stroke" d="
  M 626.11 200.68
  Q 624.69 195.29 621.69 189.31
  Q 617.32 180.62 609.51 176.43
  Q 603.16 173.02 593.13 171.80
  Q 584.15 170.70 575.39 172.81
  Q 568.55 174.46 559.27 179.62
  Q 549.09 185.29 538.69 192.94
  A 2.25 1.82 -47.2 0 1 536.56 193.25
  L 529.50 189.71"
/>
<path stroke="#1587ad" vector-effect="non-scaling-stroke" d="
  M 626.11 200.68
  Q 627.43 211.48 626.50 217.75
  Q 624.73 229.69 616.41 241.77"
/>
<path stroke="#218cb1" vector-effect="non-scaling-stroke" d="
  M 616.41 241.77
  Q 613.47 245.55 609.05 247.77
  Q 605.76 249.43 605.63 249.50
  Q 602.66 251.12 599.88 252.47
  Q 598.44 253.17 597.45 254.42
  Q 593.29 259.67 589.39 265.10
  Q 586.62 268.96 581.96 276.19
  Q 566.45 300.27 549.80 323.59
  A 0.31 0.31 -67.3 0 0 550.00 324.08
  Q 565.71 326.40 580.50 319.75
  Q 581.12 319.47 581.79 320.00"
/>
<path stroke="#454078" vector-effect="non-scaling-stroke" d="
  M 574.75 330.79
  Q 572.61 330.82 570.85 332.32"
/>
<path stroke="#08445e" vector-effect="non-scaling-stroke" d="
  M 570.85 332.32
  Q 561.45 333.65 552.86 331.15
  Q 547.26 329.52 536.64 324.14
  Q 528.72 320.12 521.57 314.84
  Q 514.79 309.83 507.81 303.77
  Q 496.47 293.93 487.44 281.06
  Q 480.44 271.09 477.25 266.04"
/>
<path stroke="#3499b9" vector-effect="non-scaling-stroke" d="
  M 631.46 241.75
  Q 630.98 241.74 630.73 241.45
  A 1.36 0.39 53.9 0 0 630.01 240.89
  Q 623.43 239.56 616.41 241.77"
/>
<path stroke="#952161" vector-effect="non-scaling-stroke" d="
  M 561.68 351.15
  Q 560.03 351.00 558.69 352.19
  Q 557.21 353.49 553.31 355.07
  Q 542.22 359.55 532.26 365.49
  Q 531.45 365.98 530.96 366.80
  Q 524.58 377.60 518.09 387.12
  Q 502.58 409.87 487.94 433.19
  Q 483.05 440.97 482.50 450.96"
/>
<path stroke="#4c0a31" vector-effect="non-scaling-stroke" d="
  M 570.85 332.32
  Q 552.98 338.00 536.81 330.44
  Q 523.06 324.00 510.17 313.68
  Q 501.79 306.98 495.12 300.52
  Q 482.31 288.12 473.28 272.51"
/>
<path stroke="#c20343" vector-effect="non-scaling-stroke" d="
  M 988.34 2.06
  Q 998.77 7.06 1004.84 16.19
  Q 1008.64 21.91 1012.04 31.54
  Q 1015.16 40.37 1015.50 48.25
  Q 1016.04 60.59 1015.50 65.25
  Q 1014.60 73.04 1012.44 77.19
  Q 1007.41 86.85 997.00 109.75
  Q 986.28 133.34 982.31 143.35"
/>
<path stroke="#720939" vector-effect="non-scaling-stroke" d="
  M 982.31 143.35
  Q 960.33 136.84 944.31 125.94
  Q 930.23 116.35 920.54 111.25"
/>
<path stroke="#770340" vector-effect="non-scaling-stroke" d="
  M 920.54 111.25
  L 909.00 102.71"
/>
<path stroke="#580a23" vector-effect="non-scaling-stroke" d="
  M 1001.46 147.50
  Q 991.60 146.29 982.31 143.35"
/>
<path stroke="#0d0920" vector-effect="non-scaling-stroke" d="
  M 920.54 111.25
  Q 919.02 111.80 917.96 113.00"
/>
<path stroke="#89283a" vector-effect="non-scaling-stroke" d="
  M 917.96 113.00
  Q 914.96 111.32 911.50 111.29"
/>
<path stroke="#7f704c" vector-effect="non-scaling-stroke" d="
  M 911.50 111.29
  L 906.75 108.97"
/>
<path stroke="#f5955f" vector-effect="non-scaling-stroke" d="
  M 911.50 111.29
  Q 906.16 124.15 899.98 136.62
  Q 898.86 138.88 892.51 152.20
  Q 888.78 160.01 884.40 167.48
  Q 884.01 168.15 882.81 169.79
  Q 881.97 170.92 881.35 172.18
  Q 879.91 175.07 879.89 175.11
  Q 871.74 189.62 864.29 204.50"
/>
<path stroke="#ead467" vector-effect="non-scaling-stroke" d="
  M 864.29 204.50
  Q 863.38 203.57 862.23 203.71
  Q 861.52 203.79 860.56 204.77
  Q 858.42 206.94 855.29 207.50"
/>
<path stroke="#832e33" vector-effect="non-scaling-stroke" d="
  M 917.96 113.00
  Q 928.23 119.50 938.31 126.29
  Q 948.86 133.41 955.26 136.87
  Q 969.94 144.79 985.22 150.39"
/>
<path stroke="#f1363e" vector-effect="non-scaling-stroke" d="
  M 985.22 150.39
  Q 980.47 162.54 975.39 174.51
  Q 971.87 182.81 966.63 192.46
  Q 950.59 221.96 936.10 252.26
  Q 933.08 258.58 930.00 262.75
  Q 928.56 264.70 928.50 266.46"
/>
<path stroke="#b37a83" vector-effect="non-scaling-stroke" d="
  M 928.50 266.46
  Q 927.35 267.18 926.57 268.69"
/>
<path stroke="#f48d56" vector-effect="non-scaling-stroke" d="
  M 855.22 243.17
  Q 853.57 234.43 855.38 226.27
  Q 856.09 223.11 857.69 218.24
  Q 859.25 213.47 861.06 210.56
  Q 863.53 206.60 864.29 204.50"
/>
<path stroke="#751723" vector-effect="non-scaling-stroke" d="
  M 997.75 153.29
  Q 991.47 153.60 985.22 150.39"
/>
<path stroke="#93867d" vector-effect="non-scaling-stroke" d="
  M 109.00 198.71
  L 106.07 207.91
  A 0.66 0.64 -78.3 0 0 106.62 208.77
  L 115.64 209.50
  A 1.96 1.87 11.4 0 0 117.64 208.24
  L 120.46 200.00"
/>
<path stroke="#9b8c81" vector-effect="non-scaling-stroke" d="
  M 120.46 200.00
  Q 122.04 190.84 124.56 184.06
  Q 126.19 179.69 126.51 175.40
  Q 126.95 169.63 126.43 166.61
  Q 125.47 160.91 119.54 158.17
  Q 116.50 156.76 114.56 159.06
  Q 112.39 161.63 113.18 165.21
  Q 113.72 167.63 116.71 167.77
  A 1.02 1.02 -78.3 0 1 117.61 169.15
  Q 112.18 183.48 109.00 198.71"
/>
<path stroke="#f1f6c2" vector-effect="non-scaling-stroke" d="
  M 120.46 200.00
  Q 115.70 199.19 113.50 199.50
  Q 110.71 199.89 109.00 198.71"
/>
<path stroke="#a56273" vector-effect="non-scaling-stroke" d="
  M 987.96 171.25
  Q 981.92 182.27 975.90 193.30
  Q 973.35 197.97 966.07 210.33
  Q 961.07 218.80 956.60 227.58
  Q 949.20 242.13 946.81 246.06
  Q 944.16 250.44 936.94 259.94
  Q 933.22 264.83 928.50 266.46"
/>
<path stroke="#f06c9e" vector-effect="non-scaling-stroke" d="
  M 419.99 167.81
  Q 410.89 162.25 400.28 161.34
  Q 399.28 161.26 397.78 160.87
  Q 396.54 160.55 395.25 160.48
  Q 394.41 160.44 394.47 160.87
  A 0.96 0.57 8.8 0 0 395.16 161.44
  Q 403.05 163.48 410.96 165.41
  Q 415.36 166.49 419.61 168.07
  Q 421.67 168.84 419.99 167.81"
/>
<path stroke="#e55893" vector-effect="non-scaling-stroke" d="
  M 426.69 171.94
  Q 425.39 170.20 423.80 169.88
  Q 423.00 169.71 423.66 170.17
  L 426.52 172.15
  Q 427.20 172.62 426.69 171.94"
/>
<path stroke="#fc7fa0" vector-effect="non-scaling-stroke" d="
  M 255.1095 231.7245
  A 4.40 1.54 63.7 0 0 254.5406 227.0977
  A 4.40 1.54 63.7 0 0 251.2105 223.8355
  A 4.40 1.54 63.7 0 0 251.7794 228.4623
  A 4.40 1.54 63.7 0 0 255.1095 231.7245"
/>
<path stroke="#2c0e2e" vector-effect="non-scaling-stroke" d="
  M 783.80 266.66
  Q 782.78 268.58 779.75 268.75
  Q 775.24 269.00 774.25 273.96"
/>
<path stroke="#69475c" vector-effect="non-scaling-stroke" d="
  M 774.25 273.96
  L 773.54 273.75"
/>
<path stroke="#97837b" vector-effect="non-scaling-stroke" d="
  M 773.54 273.75
  Q 772.73 272.60 771.38 272.63
  Q 769.70 272.66 769.61 272.65
  Q 763.81 272.02 759.25 273.00
  Q 754.48 274.03 750.93 277.73
  Q 749.28 279.45 748.70 281.22
  Q 747.99 283.40 748.56 285.52
  Q 749.04 287.30 751.75 290.42
  Q 768.57 309.76 772.19 314.31
  Q 778.90 322.75 784.95 327.85
  Q 788.64 330.97 788.99 331.21
  Q 791.25 332.79 793.97 333.21
  Q 797.29 333.72 801.54 333.08
  Q 806.05 332.40 810.19 329.44
  Q 812.65 327.67 811.98 325.29
  A 1.50 1.09 55.3 0 1 812.00 324.35
  Q 812.53 323.16 813.33 322.14
  Q 814.05 321.21 814.04 320.86
  Q 814.01 320.12 811.58 321.62
  A 0.70 0.70 -20.0 0 1 810.52 321.13
  Q 810.01 317.68 808.15 314.90
  Q 801.46 304.90 794.71 295.10"
/>
<path stroke="#2c0e2e" vector-effect="non-scaling-stroke" d="
  M 794.71 295.10
  Q 797.48 294.11 798.19 291.76
  Q 798.71 290.07 797.46 287.56
  Q 796.16 284.96 794.74 282.43
  A 0.98 0.82 47.7 0 1 794.70 281.54
  Q 795.29 280.50 796.34 281.46
  A 1.05 1.00 -26.8 0 0 797.18 281.71
  Q 799.05 281.47 801.06 282.94
  Q 802.69 284.13 803.54 282.25"
/>
<path stroke="#1d091d" vector-effect="non-scaling-stroke" d="
  M 876.41 388.39
  Q 870.83 385.15 864.78 383.19
  Q 859.53 381.48 852.38 381.26
  Q 843.96 381.00 839.75 381.75
  Q 810.64 386.92 786.12 403.34
  Q 763.14 418.73 745.55 440.05
  Q 744.81 440.95 743.14 442.36
  A 0.80 0.80 -34.6 0 1 741.93 442.14
  Q 733.46 427.20 724.80 412.64
  Q 706.93 382.58 690.06 351.94
  Q 684.78 342.35 680.54 329.41
  Q 679.11 325.03 678.36 319.80
  Q 677.66 314.88 676.98 310.00"
/>
<path stroke="#8a8070" vector-effect="non-scaling-stroke" d="
  M 794.71 295.10
  Q 792.23 290.27 788.75 286.96"
/>
<path stroke="#5c4551" vector-effect="non-scaling-stroke" d="
  M 788.75 286.96
  Q 782.46 279.39 774.25 273.96"
/>
<path stroke="#c7ba9e" vector-effect="non-scaling-stroke" d="
  M 773.54 273.75
  Q 774.01 274.89 773.18 275.50
  A 0.34 0.31 -45.1 0 0 773.16 276.03
  Q 774.53 277.01 775.70 278.20
  Q 777.08 279.61 778.17 280.39
  Q 782.28 283.34 785.95 286.84
  A 1.28 0.67 52.2 0 0 786.82 287.24
  L 788.75 286.96"
/>
<path stroke="#ebe6c0" vector-effect="non-scaling-stroke" d="
  M 765.43 292.60
  Q 768.08 292.77 770.60 292.10
  Q 772.13 291.70 772.96 290.74
  Q 773.92 289.63 774.21 288.18
  A 1.89 1.88 -72.5 0 0 773.12 286.08
  Q 769.02 284.25 764.97 283.39
  Q 761.63 282.69 760.97 284.94
  Q 760.54 286.40 761.52 288.32
  Q 762.65 290.54 764.55 292.23
  A 1.47 1.43 67.0 0 0 765.43 292.60"
/>
<path stroke="#802727" vector-effect="non-scaling-stroke" d="
  M 875.87 395.54
  Q 866.98 391.16 857.11 390.08
  Q 849.56 389.26 840.97 390.98
  Q 833.70 392.43 825.25 395.25
  Q 789.77 407.09 764.96 432.75"
/>
<path stroke="#7d6740" vector-effect="non-scaling-stroke" d="
  M 764.96 432.75
  Q 754.93 442.06 745.80 452.24
  Q 742.58 455.83 741.74 458.83
  Q 740.42 463.60 742.16 468.17
  Q 742.97 470.30 746.32 474.12
  Q 750.82 479.25 754.31 485.69
  Q 758.35 493.12 760.71 498.50"
/>
<path stroke="#70022f" vector-effect="non-scaling-stroke" d="
  M 290.00 438.96
  Q 288.60 439.57 287.14 439.49
  Q 284.96 439.36 284.35 439.51
  Q 281.51 440.21 279.29 442.29
  Q 257.35 462.94 242.97 489.45
  Q 235.92 502.46 229.96 516.00"
/>
<path stroke="#7c0231" vector-effect="non-scaling-stroke" d="
  M 229.96 516.00
  L 222.57 530.43"
/>
<path stroke="#b1044f" vector-effect="non-scaling-stroke" d="
  M 222.57 530.43
  Q 202.38 516.37 183.81 500.20
  Q 163.14 482.21 142.22 464.52
  Q 130.18 454.33 118.44 443.81
  Q 107.04 433.61 99.38 424.83
  Q 93.87 418.52 92.58 414.22
  Q 90.65 407.84 93.44 400.94
  Q 94.06 399.39 95.34 395.48
  A 0.70 0.51 30.0 0 0 95.04 394.80
  Q 94.66 394.53 94.71 394.00"
/>
<path stroke="#fb6655" vector-effect="non-scaling-stroke" d="
  M 894.90 576.04
  Q 888.47 569.40 881.75 565.25
  Q 873.97 560.45 864.26 561.33
  Q 859.26 561.78 855.04 564.50"
/>
<path stroke="#fc8d66" vector-effect="non-scaling-stroke" d="
  M 855.04 564.50
  Q 848.58 553.84 841.41 543.66
  Q 830.47 528.14 830.42 528.06
  Q 796.28 478.29 771.44 444.31
  Q 767.12 438.40 765.37 435.26
  Q 765.06 434.69 765.02 434.04
  Q 764.97 433.39 764.96 432.75"
/>
<path stroke="#59042c" vector-effect="non-scaling-stroke" d="
  M 222.57 530.43
  Q 217.71 549.45 215.37 569.91"
/>
<path stroke="#f8a66e" vector-effect="non-scaling-stroke" d="
  M 855.04 564.50
  L 862.19 576.00"
/>
<path stroke="#765651" vector-effect="non-scaling-stroke" d="
  M 313.54 451.50
  Q 314.54 453.56 316.79 454.25"
/>
<path stroke="#295566" vector-effect="non-scaling-stroke" d="
  M 316.79 454.25
  Q 314.35 454.93 314.40 457.91"
/>
<path stroke="#063f58" vector-effect="non-scaling-stroke" d="
  M 314.40 457.91
  Q 310.39 455.39 308.06 454.19
  Q 304.92 452.56 300.64 450.69
  Q 296.73 448.97 294.03 448.55
  Q 290.45 447.99 287.00 448.50
  Q 284.29 448.90 282.45 450.93
  Q 267.53 467.34 256.09 486.33
  Q 245.69 503.58 237.10 521.87"
/>
<path stroke="#17030c" vector-effect="non-scaling-stroke" d="
  M 237.10 521.87
  Q 235.53 521.26 234.62 521.91
  A 1.30 0.73 -46.0 0 1 233.75 522.17
  L 230.55 521.45
  A 0.65 0.63 20.6 0 0 229.84 521.76
  Q 229.05 523.26 228.81 521.73
  Q 228.75 521.38 228.40 520.91
  Q 228.07 520.46 228.70 520.28
  A 0.63 0.62 82.0 0 0 229.15 519.68
  Q 229.16 518.69 229.85 518.05
  A 0.72 0.69 59.5 0 0 230.03 517.29
  Q 229.82 516.69 229.96 516.00"
/>
<path stroke="#2490b4" vector-effect="non-scaling-stroke" d="
  M 314.40 457.91
  Q 314.83 458.99 316.09 459.65
  Q 358.71 482.12 402.69 501.81
  Q 413.92 506.84 426.22 515.33
  Q 428.28 516.75 429.09 517.90
  Q 430.11 519.36 430.81 521.44
  Q 431.48 523.42 435.69 532.13
  Q 445.78 552.98 442.44 576.00"
/>
<path stroke="#123e5a" vector-effect="non-scaling-stroke" d="
  M 223.50 574.29
  Q 224.51 568.47 225.29 562.61
  Q 226.38 554.32 227.10 550.94
  Q 230.33 535.82 237.10 521.87"
/>
<path stroke="#e8a88f" vector-effect="non-scaling-stroke" d="
  M 413.79 497.00
  Q 412.55 498.02 413.01 499.50
  Q 413.21 500.15 412.50 500.54"
/>
<path stroke="#94a7ad" vector-effect="non-scaling-stroke" d="
  M 412.50 500.54
  Q 380.59 484.40 333.69 461.81
  Q 323.40 456.86 316.79 454.25"
/>
<path stroke="#9ba7a4" vector-effect="non-scaling-stroke" d="
  M 412.50 500.54
  Q 424.30 506.08 434.84 513.64"
/>
</g>
<path fill="#cbaeac" d="
  M 0.00 0.00
  L 1024.00 0.00
  L 1024.00 14.06
  Q 1014.15 6.08 1000.50 3.50
  Q 993.03 2.09 988.34 2.06
  Q 978.22 2.15 968.56 7.56
  Q 961.51 11.52 956.89 17.52
  Q 955.54 19.28 949.25 30.53
  Q 929.08 66.59 909.00 102.71
  Q 906.60 105.47 906.75 108.97
  Q 896.61 132.09 886.31 150.06
  Q 869.81 178.86 863.25 191.00
  Q 857.55 201.56 855.29 207.50
  Q 846.82 225.28 855.22 243.17
  Q 857.87 253.55 866.31 260.94
  Q 875.61 269.07 887.27 271.67
  Q 897.08 273.86 907.02 273.08
  Q 910.98 272.77 916.86 271.22
  Q 921.71 269.95 926.57 268.69
  Q 928.96 267.99 931.07 266.71
  Q 933.53 265.21 935.18 264.12
  Q 938.95 261.64 941.25 257.25
  Q 943.43 253.09 947.06 247.44
  Q 950.21 242.54 952.65 237.54
  Q 961.11 220.25 971.58 204.09
  Q 973.17 201.64 974.81 197.66
  Q 976.80 192.83 979.88 188.62
  Q 983.38 183.83 984.33 181.83
  Q 986.72 176.77 987.96 171.25
  Q 992.25 161.94 997.75 153.29
  Q 998.27 153.10 1000.06 151.56
  Q 1002.19 149.74 1001.46 147.50
  Q 1005.03 142.99 1006.04 137.39
  Q 1006.05 137.32 1006.31 134.60
  Q 1006.70 130.47 1009.63 127.38
  Q 1011.70 125.20 1012.81 123.06
  Q 1016.78 115.41 1024.00 100.81
  L 1024.00 576.00
  L 970.33 576.01
  Q 974.56 550.93 961.46 529.35
  Q 958.09 523.78 949.06 509.94
  Q 915.74 458.82 882.26 407.79
  Q 882.21 407.72 880.15 404.78
  Q 877.17 400.56 875.87 395.54
  L 878.38 397.16
  A 0.73 0.71 29.4 0 0 879.44 396.88
  Q 880.24 395.19 879.77 393.73
  Q 879.63 393.31 878.47 391.08
  Q 877.66 389.53 876.41 388.39
  Q 873.71 383.08 868.94 378.31
  Q 865.80 375.18 863.20 370.93
  Q 859.48 364.86 859.46 364.83
  Q 846.64 345.53 833.67 326.32
  Q 833.59 326.21 831.72 322.92
  Q 830.68 321.10 829.10 319.65
  Q 827.26 317.97 825.75 315.25
  Q 821.79 308.14 816.06 300.69
  Q 814.13 298.16 811.94 294.30
  Q 809.71 290.36 808.02 288.08
  Q 805.84 285.12 803.54 282.25
  Q 801.71 279.47 799.16 277.35
  Q 796.30 274.97 793.54 272.49
  Q 791.29 270.46 788.91 269.22
  Q 786.37 267.89 783.80 266.66
  Q 779.98 265.03 776.29 263.19
  Q 772.61 261.36 769.37 260.76
  Q 764.64 259.89 761.25 259.75
  Q 718.14 257.98 690.06 288.56
  Q 682.19 297.14 676.98 310.00
  Q 672.06 320.95 671.25 334.50
  Q 670.57 345.88 670.98 354.62
  Q 671.16 358.37 672.28 362.78
  Q 673.31 366.79 674.31 370.81
  Q 674.91 373.21 676.46 375.39
  Q 679.56 379.76 681.31 383.44
  Q 683.97 389.00 685.81 392.64
  Q 686.64 394.29 690.71 401.01
  Q 692.67 404.24 695.56 409.44
  Q 701.96 420.91 708.33 432.39
  Q 710.40 436.14 714.39 442.51
  Q 718.09 448.41 720.19 452.81
  Q 723.02 458.75 725.56 462.44
  Q 727.99 465.95 729.69 468.88
  Q 733.02 474.62 733.56 475.46
  Q 737.43 481.45 741.39 487.39
  Q 742.83 489.55 744.95 491.04
  Q 747.85 493.10 750.64 495.30
  Q 753.06 497.21 755.34 497.76
  Q 757.98 498.39 760.71 498.50
  Q 771.20 516.86 783.32 534.18
  Q 797.93 555.06 812.48 575.97
  L 452.95 576.00
  Q 454.75 563.30 454.25 557.25
  Q 453.51 548.28 448.44 534.81
  Q 444.33 523.91 434.84 513.64
  Q 436.82 514.23 437.34 512.04
  A 0.78 0.71 26.1 0 0 437.03 511.26
  Q 426.03 503.13 413.79 497.00
  Q 408.11 493.80 402.18 491.10
  Q 398.02 489.20 393.65 486.86
  Q 389.45 484.61 385.09 482.67
  Q 381.38 481.01 378.90 479.70
  Q 375.87 478.10 372.84 476.50
  Q 372.76 476.45 364.45 472.29
  Q 357.65 468.88 348.94 463.56
  Q 343.12 460.01 335.45 457.69
  Q 332.67 456.85 328.37 455.13
  Q 324.93 453.76 321.13 452.92
  Q 319.18 452.49 317.57 451.29
  Q 315.82 449.99 313.54 451.50
  Q 309.87 446.49 304.22 444.42
  Q 299.61 442.72 299.51 442.68
  Q 295.90 441.23 292.06 440.44
  Q 291.24 440.27 290.00 438.96
  Q 238.54 412.39 186.39 387.19
  Q 183.25 385.67 175.38 382.16
  Q 168.16 378.92 164.56 376.69
  Q 159.60 373.61 153.25 372.50
  Q 132.70 368.92 114.69 378.44
  Q 102.45 384.90 94.71 394.00
  Q 91.76 396.48 87.50 402.25
  Q 75.82 418.08 72.56 435.81
  Q 68.88 455.88 79.42 475.13
  Q 82.22 480.24 85.35 485.17
  Q 88.88 490.72 93.72 495.09
  Q 98.15 499.09 99.50 500.21
  Q 102.30 502.55 105.94 504.56
  Q 108.88 506.19 114.08 509.56
  Q 118.45 512.40 122.21 514.57
  Q 140.54 525.12 158.60 536.13
  Q 186.80 553.32 215.37 569.91
  L 223.50 574.29
  Q 225.91 576.01 228.94 576.00
  L 0.00 576.00
  L 0.00 0.00
  Z
  M 99.50 9.71
  Q 89.46 12.55 84.31 19.56
  Q 80.08 25.32 76.85 33.39
  Q 74.74 38.64 72.54 48.37
  Q 65.36 80.04 57.38 111.46
  Q 52.96 121.04 51.04 131.37
  Q 49.17 141.46 49.14 141.57
  Q 42.95 169.97 36.60 198.32
  Q 34.72 206.73 33.57 215.26
  Q 31.57 230.00 39.59 242.60
  Q 43.21 249.66 50.94 254.56
  Q 59.64 260.08 67.62 262.52
  Q 79.78 266.24 91.73 261.95
  Q 99.24 259.25 105.78 254.84
  Q 110.83 251.42 114.76 246.17
  Q 121.73 236.85 124.50 227.50
  Q 130.26 208.06 135.06 177.56
  Q 136.45 168.74 142.96 139.00
  L 144.79 133.15
  A 1.10 1.02 -4.5 0 1 145.40 132.49
  L 147.83 131.45
  Q 148.50 131.16 147.80 130.93
  Q 145.39 130.13 143.54 130.75
  Q 144.83 117.78 147.37 105.02
  Q 151.16 85.97 151.25 85.41
  Q 154.59 66.17 157.32 46.52
  A 3.00 2.25 -65.9 0 0 156.85 44.45
  L 151.97 38.26
  Q 147.04 19.68 130.65 10.80
  Q 125.51 8.97 118.06 7.44
  Q 108.11 5.39 99.50 9.71
  Z
  M 326.21 185.75
  L 320.00 188.46
  Q 310.83 192.72 301.54 196.69
  Q 293.50 200.13 283.35 205.01
  Q 276.24 208.43 268.99 211.55
  Q 261.53 214.77 254.82 217.97
  Q 247.80 221.32 240.67 224.44
  Q 236.77 226.14 234.29 228.39
  Q 223.45 238.23 220.50 252.00
  Q 217.50 266.00 223.69 279.81
  Q 231.36 296.97 248.44 303.06
  Q 255.39 305.54 259.85 305.61
  Q 266.54 307.07 272.82 305.32
  Q 273.67 305.09 284.59 300.62
  Q 293.00 297.18 305.81 291.31
  Q 349.49 271.32 363.06 264.76
  L 367.29 262.75
  Q 412.81 241.51 421.69 237.44
  Q 428.45 234.33 433.84 230.11
  Q 436.39 228.11 438.13 225.01
  Q 443.54 215.42 446.56 206.31
  Q 450.26 195.19 446.96 184.82
  Q 444.13 175.94 435.96 168.43
  Q 424.81 158.18 409.04 155.26
  Q 400.91 153.75 392.44 156.69
  Q 376.95 162.05 363.83 168.16
  Q 351.82 173.75 351.71 173.80
  Q 338.88 179.61 326.21 185.75
  Z
  M 486.00 254.54
  Q 482.39 260.89 477.25 266.04
  Q 473.56 268.59 473.28 272.51
  Q 468.81 280.58 467.56 282.56
  Q 447.14 315.05 426.97 347.69
  Q 426.87 347.85 421.12 356.50
  Q 418.18 360.93 415.84 365.68
  Q 411.71 374.08 409.62 380.23
  Q 406.91 388.23 406.80 396.76
  Q 406.74 401.50 408.13 407.62
  Q 409.48 413.57 411.00 418.25
  Q 416.62 435.49 432.37 445.16
  Q 441.11 450.52 448.81 452.19
  Q 464.93 455.67 482.50 450.96
  Q 492.04 448.10 500.46 442.82
  Q 501.74 442.03 502.61 440.75
  Q 503.47 439.49 504.32 438.21
  Q 505.42 436.55 507.19 434.73
  Q 510.51 431.32 513.75 426.50
  Q 524.32 410.79 529.52 402.49
  Q 545.60 376.82 561.68 351.15
  Q 568.89 341.42 574.75 330.79
  L 581.79 320.00
  Q 607.45 281.40 631.46 241.75
  Q 637.45 231.26 638.19 228.44
  Q 639.05 225.14 638.35 215.33
  Q 639.52 193.15 622.44 179.77
  Q 617.78 176.12 613.25 172.29
  Q 614.57 170.85 614.73 169.00
  A 0.87 0.81 19.5 0 0 614.33 168.23
  Q 602.25 160.63 591.06 157.94
  Q 584.18 156.28 576.13 156.83
  Q 567.57 157.41 561.40 158.88
  Q 550.01 161.58 541.31 170.05
  Q 536.36 174.87 529.94 183.19
  Q 519.59 196.59 514.00 205.28
  Q 508.22 214.26 502.46 223.26
  Q 498.56 229.34 493.54 236.36
  Q 488.90 242.86 484.45 249.36
  A 0.99 0.94 52.8 0 0 484.35 250.23
  L 486.00 254.54
  Z"
/>
<path fill="#dc0259" d="
  M 988.34 2.06
  Q 998.77 7.06 1004.84 16.19
  Q 1008.64 21.91 1012.04 31.54
  Q 1015.16 40.37 1015.50 48.25
  Q 1016.04 60.59 1015.50 65.25
  Q 1014.60 73.04 1012.44 77.19
  Q 1007.41 86.85 997.00 109.75
  Q 986.28 133.34 982.31 143.35
  Q 960.33 136.84 944.31 125.94
  Q 930.23 116.35 920.54 111.25
  L 909.00 102.71
  Q 929.08 66.59 949.25 30.53
  Q 955.54 19.28 956.89 17.52
  Q 961.51 11.52 968.56 7.56
  Q 978.22 2.15 988.34 2.06
  Z"
/>
<path fill="#a8042d" d="
  M 988.34 2.06
  Q 993.03 2.09 1000.50 3.50
  Q 1014.15 6.08 1024.00 14.06
  L 1024.00 100.81
  Q 1016.78 115.41 1012.81 123.06
  Q 1011.70 125.20 1009.63 127.38
  Q 1006.70 130.47 1006.31 134.60
  Q 1006.05 137.32 1006.04 137.39
  Q 1005.03 142.99 1001.46 147.50
  Q 991.60 146.29 982.31 143.35
  Q 986.28 133.34 997.00 109.75
  Q 1007.41 86.85 1012.44 77.19
  Q 1014.60 73.04 1015.50 65.25
  Q 1016.04 60.59 1015.50 48.25
  Q 1015.16 40.37 1012.04 31.54
  Q 1008.64 21.91 1004.84 16.19
  Q 998.77 7.06 988.34 2.06
  Z"
/>
<path fill="#ff4d4d" d="
  M 130.65 10.80
  Q 127.51 14.45 124.81 17.56
  Q 121.31 21.61 120.23 26.59
  Q 119.57 29.64 119.61 36.43
  Q 119.66 45.37 122.06 51.69
  Q 123.98 56.74 130.63 65.75
  Q 127.24 87.38 124.00 109.00
  Q 122.09 121.76 121.71 130.50
  Q 95.42 126.47 68.72 118.71
  Q 77.15 83.14 84.70 47.54
  Q 84.72 47.43 86.08 39.93
  Q 88.05 29.01 93.57 19.39
  Q 94.61 17.58 96.51 15.60
  Q 98.18 13.85 99.75 12.00
  Q 100.88 10.67 99.50 9.71
  Q 108.11 5.39 118.06 7.44
  Q 125.51 8.97 130.65 10.80
  Z"
/>
<path fill="#ff3237" d="
  M 99.50 9.71
  Q 100.88 10.67 99.75 12.00
  Q 98.18 13.85 96.51 15.60
  Q 94.61 17.58 93.57 19.39
  Q 88.05 29.01 86.08 39.93
  Q 84.72 47.43 84.70 47.54
  Q 77.15 83.14 68.72 118.71
  Q 64.98 117.45 60.07 115.91
  Q 56.98 114.94 57.38 111.46
  Q 65.36 80.04 72.54 48.37
  Q 74.74 38.64 76.85 33.39
  Q 80.08 25.32 84.31 19.56
  Q 89.46 12.55 99.50 9.71
  Z"
/>
<path fill="#fb6c56" d="
  M 130.65 10.80
  Q 147.04 19.68 151.97 38.26
  Q 143.64 37.61 135.18 38.39
  A 0.65 0.61 -87.5 0 0 134.62 38.93
  L 130.63 65.75
  Q 123.98 56.74 122.06 51.69
  Q 119.66 45.37 119.61 36.43
  Q 119.57 29.64 120.23 26.59
  Q 121.31 21.61 124.81 17.56
  Q 127.51 14.45 130.65 10.80
  Z"
/>
<path fill="#f7ce7f" d="
  M 151.97 38.26
  L 156.85 44.45
  A 3.00 2.25 -65.9 0 1 157.32 46.52
  Q 154.59 66.17 151.25 85.41
  Q 151.16 85.97 147.37 105.02
  Q 144.83 117.78 143.54 130.75
  L 142.44 133.29
  A 0.73 0.70 -76.6 0 1 141.76 133.73
  Q 131.55 133.28 121.71 130.50
  Q 122.09 121.76 124.00 109.00
  Q 127.24 87.38 130.63 65.75
  L 134.62 38.93
  A 0.65 0.61 -87.5 0 1 135.18 38.39
  Q 143.64 37.61 151.97 38.26
  Z"
/>
<path fill="#120327" d="
  M 909.00 102.71
  L 920.54 111.25
  Q 919.02 111.80 917.96 113.00
  Q 914.96 111.32 911.50 111.29
  L 906.75 108.97
  Q 906.60 105.47 909.00 102.71
  Z"
/>
<path fill="#ebdc70" d="
  M 906.75 108.97
  L 911.50 111.29
  Q 906.16 124.15 899.98 136.62
  Q 898.86 138.88 892.51 152.20
  Q 888.78 160.01 884.40 167.48
  Q 884.01 168.15 882.81 169.79
  Q 881.97 170.92 881.35 172.18
  Q 879.91 175.07 879.89 175.11
  Q 871.74 189.62 864.29 204.50
  Q 863.38 203.57 862.23 203.71
  Q 861.52 203.79 860.56 204.77
  Q 858.42 206.94 855.29 207.50
  Q 857.55 201.56 863.25 191.00
  Q 869.81 178.86 886.31 150.06
  Q 896.61 132.09 906.75 108.97
  Z"
/>
<path fill="#ff4d4d" d="
  M 911.50 111.29
  Q 914.96 111.32 917.96 113.00
  Q 928.23 119.50 938.31 126.29
  Q 948.86 133.41 955.26 136.87
  Q 969.94 144.79 985.22 150.39
  Q 980.47 162.54 975.39 174.51
  Q 971.87 182.81 966.63 192.46
  Q 950.59 221.96 936.10 252.26
  Q 933.08 258.58 930.00 262.75
  Q 928.56 264.70 928.50 266.46
  Q 927.35 267.18 926.57 268.69
  Q 921.71 269.95 916.86 271.22
  Q 910.98 272.77 907.02 273.08
  Q 897.08 273.86 887.27 271.67
  Q 875.61 269.07 866.31 260.94
  Q 857.87 253.55 855.22 243.17
  Q 853.57 234.43 855.38 226.27
  Q 856.09 223.11 857.69 218.24
  Q 859.25 213.47 861.06 210.56
  Q 863.53 206.60 864.29 204.50
  Q 871.74 189.62 879.89 175.11
  Q 879.91 175.07 881.35 172.18
  Q 881.97 170.92 882.81 169.79
  Q 884.01 168.15 884.40 167.48
  Q 888.78 160.01 892.51 152.20
  Q 898.86 138.88 899.98 136.62
  Q 906.16 124.15 911.50 111.29
  Z"
/>
<path fill="#070f18" d="
  M 920.54 111.25
  Q 930.23 116.35 944.31 125.94
  Q 960.33 136.84 982.31 143.35
  Q 991.60 146.29 1001.46 147.50
  Q 1002.19 149.74 1000.06 151.56
  Q 998.27 153.10 997.75 153.29
  Q 991.47 153.60 985.22 150.39
  Q 969.94 144.79 955.26 136.87
  Q 948.86 133.41 938.31 126.29
  Q 928.23 119.50 917.96 113.00
  Q 919.02 111.80 920.54 111.25
  Z"
/>
<path fill="#030306" d="
  M 57.38 111.46
  Q 56.98 114.94 60.07 115.91
  Q 64.98 117.45 68.72 118.71
  Q 95.42 126.47 121.71 130.50
  Q 131.55 133.28 141.76 133.73
  A 0.73 0.70 -76.6 0 0 142.44 133.29
  L 143.54 130.75
  Q 145.39 130.13 147.80 130.93
  Q 148.50 131.16 147.83 131.45
  L 145.40 132.49
  A 1.10 1.02 -4.5 0 0 144.79 133.15
  L 142.96 139.00
  Q 135.76 137.50 125.25 136.00
  Q 108.14 133.57 86.26 129.44
  Q 83.53 128.92 73.50 127.75
  Q 70.09 127.35 67.91 128.02
  A 1.38 1.19 -80.1 0 0 67.18 128.62
  Q 63.19 135.36 61.53 142.98
  Q 60.33 148.42 60.32 148.49
  Q 50.61 187.67 45.50 220.75
  Q 43.56 233.34 39.59 242.60
  Q 31.57 230.00 33.57 215.26
  Q 34.72 206.73 36.60 198.32
  Q 42.95 169.97 49.14 141.57
  Q 49.17 141.46 51.04 131.37
  Q 52.96 121.04 57.38 111.46
  Z"
/>
<path fill="#3c1c3b" d="
  M 142.96 139.00
  Q 136.45 168.74 135.06 177.56
  Q 130.26 208.06 124.50 227.50
  Q 121.73 236.85 114.76 246.17
  Q 110.83 251.42 105.78 254.84
  Q 99.24 259.25 91.73 261.95
  Q 79.78 266.24 67.62 262.52
  Q 59.64 260.08 50.94 254.56
  Q 43.21 249.66 39.59 242.60
  Q 43.56 233.34 45.50 220.75
  Q 50.61 187.67 60.32 148.49
  Q 60.33 148.42 61.53 142.98
  Q 63.19 135.36 67.18 128.62
  A 1.38 1.19 -80.1 0 1 67.91 128.02
  Q 70.09 127.35 73.50 127.75
  Q 83.53 128.92 86.26 129.44
  Q 108.14 133.57 125.25 136.00
  Q 135.76 137.50 142.96 139.00
  Z
  M 109.00 198.71
  L 106.07 207.91
  A 0.66 0.64 -78.3 0 0 106.62 208.77
  L 115.64 209.50
  A 1.96 1.87 11.4 0 0 117.64 208.24
  L 120.46 200.00
  Q 122.04 190.84 124.56 184.06
  Q 126.19 179.69 126.51 175.40
  Q 126.95 169.63 126.43 166.61
  Q 125.47 160.91 119.54 158.17
  Q 116.50 156.76 114.56 159.06
  Q 112.39 161.63 113.18 165.21
  Q 113.72 167.63 116.71 167.77
  A 1.02 1.02 -78.3 0 1 117.61 169.15
  Q 112.18 183.48 109.00 198.71
  Z"
/>
<path fill="#e31e2e" d="
  M 985.22 150.39
  Q 991.47 153.60 997.75 153.29
  Q 992.25 161.94 987.96 171.25
  Q 981.92 182.27 975.90 193.30
  Q 973.35 197.97 966.07 210.33
  Q 961.07 218.80 956.60 227.58
  Q 949.20 242.13 946.81 246.06
  Q 944.16 250.44 936.94 259.94
  Q 933.22 264.83 928.50 266.46
  Q 928.56 264.70 930.00 262.75
  Q 933.08 258.58 936.10 252.26
  Q 950.59 221.96 966.63 192.46
  Q 971.87 182.81 975.39 174.51
  Q 980.47 162.54 985.22 150.39
  Z"
/>
<path fill="#ff0179" d="
  M 367.29 262.75
  Q 354.84 241.47 352.81 237.44
  Q 347.62 227.12 341.88 217.09
  Q 333.17 201.86 326.21 185.75
  Q 338.88 179.61 351.71 173.80
  Q 351.82 173.75 363.83 168.16
  Q 376.95 162.05 392.44 156.69
  Q 400.91 153.75 409.04 155.26
  Q 424.81 158.18 435.96 168.43
  Q 444.13 175.94 446.96 184.82
  Q 450.26 195.19 446.56 206.31
  Q 443.54 215.42 438.13 225.01
  Q 436.39 228.11 433.84 230.11
  Q 428.45 234.33 421.69 237.44
  Q 412.81 241.51 367.29 262.75
  Z
  M 419.99 167.81
  Q 410.89 162.25 400.28 161.34
  Q 399.28 161.26 397.78 160.87
  Q 396.54 160.55 395.25 160.48
  Q 394.41 160.44 394.47 160.87
  A 0.96 0.57 8.8 0 0 395.16 161.44
  Q 403.05 163.48 410.96 165.41
  Q 415.36 166.49 419.61 168.07
  Q 421.67 168.84 419.99 167.81
  Z
  M 426.69 171.94
  Q 425.39 170.20 423.80 169.88
  Q 423.00 169.71 423.66 170.17
  L 426.52 172.15
  Q 427.20 172.62 426.69 171.94
  Z"
/>
<path fill="#e5a992" d="
  M 613.25 172.29
  Q 598.43 160.73 578.25 160.75
  Q 567.03 160.76 557.78 163.92
  Q 553.49 165.38 549.66 167.88
  Q 545.71 170.46 542.56 173.56
  Q 535.45 180.56 529.50 189.71
  Q 515.27 210.07 509.81 218.56
  Q 498.15 236.71 486.00 254.54
  L 484.35 250.23
  A 0.99 0.94 52.8 0 1 484.45 249.36
  Q 488.90 242.86 493.54 236.36
  Q 498.56 229.34 502.46 223.26
  Q 508.22 214.26 514.00 205.28
  Q 519.59 196.59 529.94 183.19
  Q 536.36 174.87 541.31 170.05
  Q 550.01 161.58 561.40 158.88
  Q 567.57 157.41 576.13 156.83
  Q 584.18 156.28 591.06 157.94
  Q 602.25 160.63 614.33 168.23
  A 0.87 0.81 19.5 0 1 614.73 169.00
  Q 614.57 170.85 613.25 172.29
  Z"
/>
<path fill="#f9fcc6" d="
  M 120.46 200.00
  Q 115.70 199.19 113.50 199.50
  Q 110.71 199.89 109.00 198.71
  Q 112.18 183.48 117.61 169.15
  A 1.02 1.02 -78.3 0 0 116.71 167.77
  Q 113.72 167.63 113.18 165.21
  Q 112.39 161.63 114.56 159.06
  Q 116.50 156.76 119.54 158.17
  Q 125.47 160.91 126.43 166.61
  Q 126.95 169.63 126.51 175.40
  Q 126.19 179.69 124.56 184.06
  Q 122.04 190.84 120.46 200.00
  Z"
/>
<path fill="#e0d7c3" d="
  M 419.99 167.81
  Q 421.67 168.84 419.61 168.07
  Q 415.36 166.49 410.96 165.41
  Q 403.05 163.48 395.16 161.44
  A 0.96 0.57 8.8 0 1 394.47 160.87
  Q 394.41 160.44 395.25 160.48
  Q 396.54 160.55 397.78 160.87
  Q 399.28 161.26 400.28 161.34
  Q 410.89 162.25 419.99 167.81
  Z"
/>
<path fill="#37a6c4" d="
  M 613.25 172.29
  Q 617.78 176.12 622.44 179.77
  Q 639.52 193.15 638.35 215.33
  Q 633.19 207.17 626.11 200.68
  Q 624.69 195.29 621.69 189.31
  Q 617.32 180.62 609.51 176.43
  Q 603.16 173.02 593.13 171.80
  Q 584.15 170.70 575.39 172.81
  Q 568.55 174.46 559.27 179.62
  Q 549.09 185.29 538.69 192.94
  A 2.25 1.82 -47.2 0 1 536.56 193.25
  L 529.50 189.71
  Q 535.45 180.56 542.56 173.56
  Q 545.71 170.46 549.66 167.88
  Q 553.49 165.38 557.78 163.92
  Q 567.03 160.76 578.25 160.75
  Q 598.43 160.73 613.25 172.29
  Z"
/>
<path fill="#cbaeac" d="
  M 426.69 171.94
  Q 427.20 172.62 426.52 172.15
  L 423.66 170.17
  Q 423.00 169.71 423.80 169.88
  Q 425.39 170.20 426.69 171.94
  Z"
/>
<path fill="#67a6b8" d="
  M 987.96 171.25
  Q 986.72 176.77 984.33 181.83
  Q 983.38 183.83 979.88 188.62
  Q 976.80 192.83 974.81 197.66
  Q 973.17 201.64 971.58 204.09
  Q 961.11 220.25 952.65 237.54
  Q 950.21 242.54 947.06 247.44
  Q 943.43 253.09 941.25 257.25
  Q 938.95 261.64 935.18 264.12
  Q 933.53 265.21 931.07 266.71
  Q 928.96 267.99 926.57 268.69
  Q 927.35 267.18 928.50 266.46
  Q 933.22 264.83 936.94 259.94
  Q 944.16 250.44 946.81 246.06
  Q 949.20 242.13 956.60 227.58
  Q 961.07 218.80 966.07 210.33
  Q 973.35 197.97 975.90 193.30
  Q 981.92 182.27 987.96 171.25
  Z"
/>
<path fill="#017aa5" d="
  M 626.11 200.68
  Q 627.43 211.48 626.50 217.75
  Q 624.73 229.69 616.41 241.77
  Q 613.47 245.55 609.05 247.77
  Q 605.76 249.43 605.63 249.50
  Q 602.66 251.12 599.88 252.47
  Q 598.44 253.17 597.45 254.42
  Q 593.29 259.67 589.39 265.10
  Q 586.62 268.96 581.96 276.19
  Q 566.45 300.27 549.80 323.59
  A 0.31 0.31 -67.3 0 0 550.00 324.08
  Q 565.71 326.40 580.50 319.75
  Q 581.12 319.47 581.79 320.00
  L 574.75 330.79
  Q 572.61 330.82 570.85 332.32
  Q 561.45 333.65 552.86 331.15
  Q 547.26 329.52 536.64 324.14
  Q 528.72 320.12 521.57 314.84
  Q 514.79 309.83 507.81 303.77
  Q 496.47 293.93 487.44 281.06
  Q 480.44 271.09 477.25 266.04
  Q 482.39 260.89 486.00 254.54
  Q 498.15 236.71 509.81 218.56
  Q 515.27 210.07 529.50 189.71
  L 536.56 193.25
  A 2.25 1.82 -47.2 0 0 538.69 192.94
  Q 549.09 185.29 559.27 179.62
  Q 568.55 174.46 575.39 172.81
  Q 584.15 170.70 593.13 171.80
  Q 603.16 173.02 609.51 176.43
  Q 617.32 180.62 621.69 189.31
  Q 624.69 195.29 626.11 200.68
  Z"
/>
<path fill="#004e73" d="
  M 326.21 185.75
  Q 333.17 201.86 341.88 217.09
  Q 347.62 227.12 352.81 237.44
  Q 354.84 241.47 367.29 262.75
  L 363.06 264.76
  Q 352.62 245.36 346.94 235.81
  Q 345.53 233.44 342.89 232.69
  Q 341.04 227.13 338.53 222.24
  Q 334.87 215.12 334.83 215.03
  Q 328.19 201.32 320.00 188.46
  L 326.21 185.75
  Z"
/>
<path fill="#ff0179" d="
  M 320.00 188.46
  Q 328.19 201.32 334.83 215.03
  Q 334.87 215.12 338.53 222.24
  Q 341.04 227.13 342.89 232.69
  Q 305.23 250.94 266.53 266.73
  Q 261.13 268.94 255.95 271.60
  Q 253.34 272.94 251.43 275.18
  Q 249.59 277.33 247.57 279.31
  Q 246.31 280.54 246.75 282.24
  Q 248.61 289.53 252.25 296.05
  Q 253.36 298.04 256.00 300.84
  Q 258.12 303.09 259.85 305.61
  Q 255.39 305.54 248.44 303.06
  Q 231.36 296.97 223.69 279.81
  Q 217.50 266.00 220.50 252.00
  Q 223.45 238.23 234.29 228.39
  Q 236.77 226.14 240.67 224.44
  Q 247.80 221.32 254.82 217.97
  Q 261.53 214.77 268.99 211.55
  Q 276.24 208.43 283.35 205.01
  Q 293.50 200.13 301.54 196.69
  Q 310.83 192.72 320.00 188.46
  Z
  M 255.1095 231.7245
  A 4.40 1.54 63.7 0 0 254.5406 227.0977
  A 4.40 1.54 63.7 0 0 251.2105 223.8355
  A 4.40 1.54 63.7 0 0 251.7794 228.4623
  A 4.40 1.54 63.7 0 0 255.1095 231.7245
  Z"
/>
<path fill="#e9efbe" d="
  M 109.00 198.71
  Q 110.71 199.89 113.50 199.50
  Q 115.70 199.19 120.46 200.00
  L 117.64 208.24
  A 1.96 1.87 11.4 0 1 115.64 209.50
  L 106.62 208.77
  A 0.66 0.64 -78.3 0 1 106.07 207.91
  L 109.00 198.71
  Z"
/>
<path fill="#2893b5" d="
  M 626.11 200.68
  Q 633.19 207.17 638.35 215.33
  Q 639.05 225.14 638.19 228.44
  Q 637.45 231.26 631.46 241.75
  Q 630.98 241.74 630.73 241.45
  A 1.36 0.39 53.9 0 0 630.01 240.89
  Q 623.43 239.56 616.41 241.77
  Q 624.73 229.69 626.50 217.75
  Q 627.43 211.48 626.11 200.68
  Z"
/>
<path fill="#e8cc5e" d="
  M 864.29 204.50
  Q 863.53 206.60 861.06 210.56
  Q 859.25 213.47 857.69 218.24
  Q 856.09 223.11 855.38 226.27
  Q 853.57 234.43 855.22 243.17
  Q 846.82 225.28 855.29 207.50
  Q 858.42 206.94 860.56 204.77
  Q 861.52 203.79 862.23 203.71
  Q 863.38 203.57 864.29 204.50
  Z"
/>
<ellipse fill="#f9fcc6" cx="0.00" cy="0.00" transform="translate(253.16,227.78) rotate(63.7)" rx="4.40" ry="1.54"/>
<path fill="#fd3e63" d="
  M 342.89 232.69
  Q 345.53 233.44 346.94 235.81
  Q 352.62 245.36 363.06 264.76
  Q 349.49 271.32 305.81 291.31
  Q 293.00 297.18 284.59 300.62
  Q 273.67 305.09 272.82 305.32
  Q 266.54 307.07 259.85 305.61
  Q 258.12 303.09 256.00 300.84
  Q 253.36 298.04 252.25 296.05
  Q 248.61 289.53 246.75 282.24
  Q 246.31 280.54 247.57 279.31
  Q 249.59 277.33 251.43 275.18
  Q 253.34 272.94 255.95 271.60
  Q 261.13 268.94 266.53 266.73
  Q 305.23 250.94 342.89 232.69
  Z"
/>
<path fill="#409ebd" d="
  M 631.46 241.75
  Q 607.45 281.40 581.79 320.00
  Q 581.12 319.47 580.50 319.75
  Q 565.71 326.40 550.00 324.08
  A 0.31 0.31 -67.3 0 1 549.80 323.59
  Q 566.45 300.27 581.96 276.19
  Q 586.62 268.96 589.39 265.10
  Q 593.29 259.67 597.45 254.42
  Q 598.44 253.17 599.88 252.47
  Q 602.66 251.12 605.63 249.50
  Q 605.76 249.43 609.05 247.77
  Q 613.47 245.55 616.41 241.77
  Q 623.43 239.56 630.01 240.89
  A 1.36 0.39 53.9 0 1 630.73 241.45
  Q 630.98 241.74 631.46 241.75
  Z"
/>
<path fill="#391039" d="
  M 783.80 266.66
  Q 782.78 268.58 779.75 268.75
  Q 775.24 269.00 774.25 273.96
  L 773.54 273.75
  Q 772.73 272.60 771.38 272.63
  Q 769.70 272.66 769.61 272.65
  Q 763.81 272.02 759.25 273.00
  Q 754.48 274.03 750.93 277.73
  Q 749.28 279.45 748.70 281.22
  Q 747.99 283.40 748.56 285.52
  Q 749.04 287.30 751.75 290.42
  Q 768.57 309.76 772.19 314.31
  Q 778.90 322.75 784.95 327.85
  Q 788.64 330.97 788.99 331.21
  Q 791.25 332.79 793.97 333.21
  Q 797.29 333.72 801.54 333.08
  Q 806.05 332.40 810.19 329.44
  Q 812.65 327.67 811.98 325.29
  A 1.50 1.09 55.3 0 1 812.00 324.35
  Q 812.53 323.16 813.33 322.14
  Q 814.05 321.21 814.04 320.86
  Q 814.01 320.12 811.58 321.62
  A 0.70 0.70 -20.0 0 1 810.52 321.13
  Q 810.01 317.68 808.15 314.90
  Q 801.46 304.90 794.71 295.10
  Q 797.48 294.11 798.19 291.76
  Q 798.71 290.07 797.46 287.56
  Q 796.16 284.96 794.74 282.43
  A 0.98 0.82 47.7 0 1 794.70 281.54
  Q 795.29 280.50 796.34 281.46
  A 1.05 1.00 -26.8 0 0 797.18 281.71
  Q 799.05 281.47 801.06 282.94
  Q 802.69 284.13 803.54 282.25
  Q 805.84 285.12 808.02 288.08
  Q 809.71 290.36 811.94 294.30
  Q 814.13 298.16 816.06 300.69
  Q 821.79 308.14 825.75 315.25
  Q 827.26 317.97 829.10 319.65
  Q 830.68 321.10 831.72 322.92
  Q 833.59 326.21 833.67 326.32
  Q 846.64 345.53 859.46 364.83
  Q 859.48 364.86 863.20 370.93
  Q 865.80 375.18 868.94 378.31
  Q 873.71 383.08 876.41 388.39
  Q 870.83 385.15 864.78 383.19
  Q 859.53 381.48 852.38 381.26
  Q 843.96 381.00 839.75 381.75
  Q 810.64 386.92 786.12 403.34
  Q 763.14 418.73 745.55 440.05
  Q 744.81 440.95 743.14 442.36
  A 0.80 0.80 -34.6 0 1 741.93 442.14
  Q 733.46 427.20 724.80 412.64
  Q 706.93 382.58 690.06 351.94
  Q 684.78 342.35 680.54 329.41
  Q 679.11 325.03 678.36 319.80
  Q 677.66 314.88 676.98 310.00
  Q 682.19 297.14 690.06 288.56
  Q 718.14 257.98 761.25 259.75
  Q 764.64 259.89 769.37 260.76
  Q 772.61 261.36 776.29 263.19
  Q 779.98 265.03 783.80 266.66
  Z"
/>
<path fill="#0f0e17" d="
  M 477.25 266.04
  Q 480.44 271.09 487.44 281.06
  Q 496.47 293.93 507.81 303.77
  Q 514.79 309.83 521.57 314.84
  Q 528.72 320.12 536.64 324.14
  Q 547.26 329.52 552.86 331.15
  Q 561.45 333.65 570.85 332.32
  Q 552.98 338.00 536.81 330.44
  Q 523.06 324.00 510.17 313.68
  Q 501.79 306.98 495.12 300.52
  Q 482.31 288.12 473.28 272.51
  Q 473.56 268.59 477.25 266.04
  Z"
/>
<path fill="#1e0b22" d="
  M 783.80 266.66
  Q 786.37 267.89 788.91 269.22
  Q 791.29 270.46 793.54 272.49
  Q 796.30 274.97 799.16 277.35
  Q 801.71 279.47 803.54 282.25
  Q 802.69 284.13 801.06 282.94
  Q 799.05 281.47 797.18 281.71
  A 1.05 1.00 -26.8 0 1 796.34 281.46
  Q 795.29 280.50 794.70 281.54
  A 0.98 0.82 47.7 0 0 794.74 282.43
  Q 796.16 284.96 797.46 287.56
  Q 798.71 290.07 798.19 291.76
  Q 797.48 294.11 794.71 295.10
  Q 792.23 290.27 788.75 286.96
  Q 782.46 279.39 774.25 273.96
  Q 775.24 269.00 779.75 268.75
  Q 782.78 268.58 783.80 266.66
  Z"
/>
<path fill="#f5f5bd" d="
  M 773.54 273.75
  Q 774.01 274.89 773.18 275.50
  A 0.34 0.31 -45.1 0 0 773.16 276.03
  Q 774.53 277.01 775.70 278.20
  Q 777.08 279.61 778.17 280.39
  Q 782.28 283.34 785.95 286.84
  A 1.28 0.67 52.2 0 0 786.82 287.24
  L 788.75 286.96
  Q 792.23 290.27 794.71 295.10
  Q 801.46 304.90 808.15 314.90
  Q 810.01 317.68 810.52 321.13
  A 0.70 0.70 -20.0 0 0 811.58 321.62
  Q 814.01 320.12 814.04 320.86
  Q 814.05 321.21 813.33 322.14
  Q 812.53 323.16 812.00 324.35
  A 1.50 1.09 55.3 0 0 811.98 325.29
  Q 812.65 327.67 810.19 329.44
  Q 806.05 332.40 801.54 333.08
  Q 797.29 333.72 793.97 333.21
  Q 791.25 332.79 788.99 331.21
  Q 788.64 330.97 784.95 327.85
  Q 778.90 322.75 772.19 314.31
  Q 768.57 309.76 751.75 290.42
  Q 749.04 287.30 748.56 285.52
  Q 747.99 283.40 748.70 281.22
  Q 749.28 279.45 750.93 277.73
  Q 754.48 274.03 759.25 273.00
  Q 763.81 272.02 769.61 272.65
  Q 769.70 272.66 771.38 272.63
  Q 772.73 272.60 773.54 273.75
  Z
  M 765.43 292.60
  Q 768.08 292.77 770.60 292.10
  Q 772.13 291.70 772.96 290.74
  Q 773.92 289.63 774.21 288.18
  A 1.89 1.88 -72.5 0 0 773.12 286.08
  Q 769.02 284.25 764.97 283.39
  Q 761.63 282.69 760.97 284.94
  Q 760.54 286.40 761.52 288.32
  Q 762.65 290.54 764.55 292.23
  A 1.47 1.43 67.0 0 0 765.43 292.60
  Z"
/>
<path fill="#89054a" d="
  M 473.28 272.51
  Q 482.31 288.12 495.12 300.52
  Q 501.79 306.98 510.17 313.68
  Q 523.06 324.00 536.81 330.44
  Q 552.98 338.00 570.85 332.32
  Q 572.61 330.82 574.75 330.79
  Q 568.89 341.42 561.68 351.15
  Q 560.03 351.00 558.69 352.19
  Q 557.21 353.49 553.31 355.07
  Q 542.22 359.55 532.26 365.49
  Q 531.45 365.98 530.96 366.80
  Q 524.58 377.60 518.09 387.12
  Q 502.58 409.87 487.94 433.19
  Q 483.05 440.97 482.50 450.96
  Q 464.93 455.67 448.81 452.19
  Q 441.11 450.52 432.37 445.16
  Q 416.62 435.49 411.00 418.25
  Q 409.48 413.57 408.13 407.62
  Q 406.74 401.50 406.80 396.76
  Q 406.91 388.23 409.62 380.23
  Q 411.71 374.08 415.84 365.68
  Q 418.18 360.93 421.12 356.50
  Q 426.87 347.85 426.97 347.69
  Q 447.14 315.05 467.56 282.56
  Q 468.81 280.58 473.28 272.51
  Z"
/>
<path fill="#997e7f" d="
  M 773.54 273.75
  L 774.25 273.96
  Q 782.46 279.39 788.75 286.96
  L 786.82 287.24
  A 1.28 0.67 52.2 0 1 785.95 286.84
  Q 782.28 283.34 778.17 280.39
  Q 777.08 279.61 775.70 278.20
  Q 774.53 277.01 773.16 276.03
  A 0.34 0.31 -45.1 0 1 773.18 275.50
  Q 774.01 274.89 773.54 273.75
  Z"
/>
<path fill="#e0d7c3" d="
  M 764.55 292.23
  Q 762.65 290.54 761.52 288.32
  Q 760.54 286.40 760.97 284.94
  Q 761.63 282.69 764.97 283.39
  Q 769.02 284.25 773.12 286.08
  A 1.89 1.88 -72.5 0 1 774.21 288.18
  Q 773.92 289.63 772.96 290.74
  Q 772.13 291.70 770.60 292.10
  Q 768.08 292.77 765.43 292.60
  A 1.47 1.43 67.0 0 1 764.55 292.23
  Z"
/>
<path fill="#010101" d="
  M 676.98 310.00
  Q 677.66 314.88 678.36 319.80
  Q 679.11 325.03 680.54 329.41
  Q 684.78 342.35 690.06 351.94
  Q 706.93 382.58 724.80 412.64
  Q 733.46 427.20 741.93 442.14
  A 0.80 0.80 -34.6 0 0 743.14 442.36
  Q 744.81 440.95 745.55 440.05
  Q 763.14 418.73 786.12 403.34
  Q 810.64 386.92 839.75 381.75
  Q 843.96 381.00 852.38 381.26
  Q 859.53 381.48 864.78 383.19
  Q 870.83 385.15 876.41 388.39
  Q 877.66 389.53 878.47 391.08
  Q 879.63 393.31 879.77 393.73
  Q 880.24 395.19 879.44 396.88
  A 0.73 0.71 29.4 0 1 878.38 397.16
  L 875.87 395.54
  Q 866.98 391.16 857.11 390.08
  Q 849.56 389.26 840.97 390.98
  Q 833.70 392.43 825.25 395.25
  Q 789.77 407.09 764.96 432.75
  Q 754.93 442.06 745.80 452.24
  Q 742.58 455.83 741.74 458.83
  Q 740.42 463.60 742.16 468.17
  Q 742.97 470.30 746.32 474.12
  Q 750.82 479.25 754.31 485.69
  Q 758.35 493.12 760.71 498.50
  Q 757.98 498.39 755.34 497.76
  Q 753.06 497.21 750.64 495.30
  Q 747.85 493.10 744.95 491.04
  Q 742.83 489.55 741.39 487.39
  Q 737.43 481.45 733.56 475.46
  Q 733.02 474.62 729.69 468.88
  Q 727.99 465.95 725.56 462.44
  Q 723.02 458.75 720.19 452.81
  Q 718.09 448.41 714.39 442.51
  Q 710.40 436.14 708.33 432.39
  Q 701.96 420.91 695.56 409.44
  Q 692.67 404.24 690.71 401.01
  Q 686.64 394.29 685.81 392.64
  Q 683.97 389.00 681.31 383.44
  Q 679.56 379.76 676.46 375.39
  Q 674.91 373.21 674.31 370.81
  Q 673.31 366.79 672.28 362.78
  Q 671.16 358.37 670.98 354.62
  Q 670.57 345.88 671.25 334.50
  Q 672.06 320.95 676.98 310.00
  Z"
/>
<path fill="#a03d77" d="
  M 561.68 351.15
  Q 545.60 376.82 529.52 402.49
  Q 524.32 410.79 513.75 426.50
  Q 510.51 431.32 507.19 434.73
  Q 505.42 436.55 504.32 438.21
  Q 503.47 439.49 502.61 440.75
  Q 501.74 442.03 500.46 442.82
  Q 492.04 448.10 482.50 450.96
  Q 483.05 440.97 487.94 433.19
  Q 502.58 409.87 518.09 387.12
  Q 524.58 377.60 530.96 366.80
  Q 531.45 365.98 532.26 365.49
  Q 542.22 359.55 553.31 355.07
  Q 557.21 353.49 558.69 352.19
  Q 560.03 351.00 561.68 351.15
  Z"
/>
<path fill="#d40153" d="
  M 290.00 438.96
  Q 288.60 439.57 287.14 439.49
  Q 284.96 439.36 284.35 439.51
  Q 281.51 440.21 279.29 442.29
  Q 257.35 462.94 242.97 489.45
  Q 235.92 502.46 229.96 516.00
  L 222.57 530.43
  Q 202.38 516.37 183.81 500.20
  Q 163.14 482.21 142.22 464.52
  Q 130.18 454.33 118.44 443.81
  Q 107.04 433.61 99.38 424.83
  Q 93.87 418.52 92.58 414.22
  Q 90.65 407.84 93.44 400.94
  Q 94.06 399.39 95.34 395.48
  A 0.70 0.51 30.0 0 0 95.04 394.80
  Q 94.66 394.53 94.71 394.00
  Q 102.45 384.90 114.69 378.44
  Q 132.70 368.92 153.25 372.50
  Q 159.60 373.61 164.56 376.69
  Q 168.16 378.92 175.38 382.16
  Q 183.25 385.67 186.39 387.19
  Q 238.54 412.39 290.00 438.96
  Z"
/>
<path fill="#ff4d4d" d="
  M 875.87 395.54
  Q 877.17 400.56 880.15 404.78
  Q 882.21 407.72 882.26 407.79
  Q 915.74 458.82 949.06 509.94
  Q 958.09 523.78 961.46 529.35
  Q 974.56 550.93 970.33 576.01
  L 894.90 576.04
  Q 888.47 569.40 881.75 565.25
  Q 873.97 560.45 864.26 561.33
  Q 859.26 561.78 855.04 564.50
  Q 848.58 553.84 841.41 543.66
  Q 830.47 528.14 830.42 528.06
  Q 796.28 478.29 771.44 444.31
  Q 767.12 438.40 765.37 435.26
  Q 765.06 434.69 765.02 434.04
  Q 764.97 433.39 764.96 432.75
  Q 789.77 407.09 825.25 395.25
  Q 833.70 392.43 840.97 390.98
  Q 849.56 389.26 857.11 390.08
  Q 866.98 391.16 875.87 395.54
  Z"
/>
<path fill="#8e064a" d="
  M 94.71 394.00
  Q 94.66 394.53 95.04 394.80
  A 0.70 0.51 30.0 0 1 95.34 395.48
  Q 94.06 399.39 93.44 400.94
  Q 90.65 407.84 92.58 414.22
  Q 93.87 418.52 99.38 424.83
  Q 107.04 433.61 118.44 443.81
  Q 130.18 454.33 142.22 464.52
  Q 163.14 482.21 183.81 500.20
  Q 202.38 516.37 222.57 530.43
  Q 217.71 549.45 215.37 569.91
  Q 186.80 553.32 158.60 536.13
  Q 140.54 525.12 122.21 514.57
  Q 118.45 512.40 114.08 509.56
  Q 108.88 506.19 105.94 504.56
  Q 102.30 502.55 99.50 500.21
  Q 98.15 499.09 93.72 495.09
  Q 88.88 490.72 85.35 485.17
  Q 82.22 480.24 79.42 475.13
  Q 68.88 455.88 72.56 435.81
  Q 75.82 418.08 87.50 402.25
  Q 91.76 396.48 94.71 394.00
  Z"
/>
<path fill="#f9cd7f" d="
  M 764.96 432.75
  Q 764.97 433.39 765.02 434.04
  Q 765.06 434.69 765.37 435.26
  Q 767.12 438.40 771.44 444.31
  Q 796.28 478.29 830.42 528.06
  Q 830.47 528.14 841.41 543.66
  Q 848.58 553.84 855.04 564.50
  L 862.19 576.00
  L 812.48 575.97
  Q 797.93 555.06 783.32 534.18
  Q 771.20 516.86 760.71 498.50
  Q 758.35 493.12 754.31 485.69
  Q 750.82 479.25 746.32 474.12
  Q 742.97 470.30 742.16 468.17
  Q 740.42 463.60 741.74 458.83
  Q 742.58 455.83 745.80 452.24
  Q 754.93 442.06 764.96 432.75
  Z"
/>
<path fill="#0b030a" d="
  M 290.00 438.96
  Q 291.24 440.27 292.06 440.44
  Q 295.90 441.23 299.51 442.68
  Q 299.61 442.72 304.22 444.42
  Q 309.87 446.49 313.54 451.50
  Q 314.54 453.56 316.79 454.25
  Q 314.35 454.93 314.40 457.91
  Q 310.39 455.39 308.06 454.19
  Q 304.92 452.56 300.64 450.69
  Q 296.73 448.97 294.03 448.55
  Q 290.45 447.99 287.00 448.50
  Q 284.29 448.90 282.45 450.93
  Q 267.53 467.34 256.09 486.33
  Q 245.69 503.58 237.10 521.87
  Q 235.53 521.26 234.62 521.91
  A 1.30 0.73 -46.0 0 1 233.75 522.17
  L 230.55 521.45
  A 0.65 0.63 20.6 0 0 229.84 521.76
  Q 229.05 523.26 228.81 521.73
  Q 228.75 521.38 228.40 520.91
  Q 228.07 520.46 228.70 520.28
  A 0.63 0.62 82.0 0 0 229.15 519.68
  Q 229.16 518.69 229.85 518.05
  A 0.72 0.69 59.5 0 0 230.03 517.29
  Q 229.82 516.69 229.96 516.00
  Q 235.92 502.46 242.97 489.45
  Q 257.35 462.94 279.29 442.29
  Q 281.51 440.21 284.35 439.51
  Q 284.96 439.36 287.14 439.49
  Q 288.60 439.57 290.00 438.96
  Z"
/>
<path fill="#017aa5" d="
  M 314.40 457.91
  Q 314.83 458.99 316.09 459.65
  Q 358.71 482.12 402.69 501.81
  Q 413.92 506.84 426.22 515.33
  Q 428.28 516.75 429.09 517.90
  Q 430.11 519.36 430.81 521.44
  Q 431.48 523.42 435.69 532.13
  Q 445.78 552.98 442.44 576.00
  L 228.94 576.00
  Q 225.91 576.01 223.50 574.29
  Q 224.51 568.47 225.29 562.61
  Q 226.38 554.32 227.10 550.94
  Q 230.33 535.82 237.10 521.87
  Q 245.69 503.58 256.09 486.33
  Q 267.53 467.34 282.45 450.93
  Q 284.29 448.90 287.00 448.50
  Q 290.45 447.99 294.03 448.55
  Q 296.73 448.97 300.64 450.69
  Q 304.92 452.56 308.06 454.19
  Q 310.39 455.39 314.40 457.91
  Z"
/>
<path fill="#e1a897" d="
  M 413.79 497.00
  Q 412.55 498.02 413.01 499.50
  Q 413.21 500.15 412.50 500.54
  Q 380.59 484.40 333.69 461.81
  Q 323.40 456.86 316.79 454.25
  Q 314.54 453.56 313.54 451.50
  Q 315.82 449.99 317.57 451.29
  Q 319.18 452.49 321.13 452.92
  Q 324.93 453.76 328.37 455.13
  Q 332.67 456.85 335.45 457.69
  Q 343.12 460.01 348.94 463.56
  Q 357.65 468.88 364.45 472.29
  Q 372.76 476.45 372.84 476.50
  Q 375.87 478.10 378.90 479.70
  Q 381.38 481.01 385.09 482.67
  Q 389.45 484.61 393.65 486.86
  Q 398.02 489.20 402.18 491.10
  Q 408.11 493.80 413.79 497.00
  Z"
/>
<path fill="#47a6c2" d="
  M 316.79 454.25
  Q 323.40 456.86 333.69 461.81
  Q 380.59 484.40 412.50 500.54
  Q 424.30 506.08 434.84 513.64
  Q 444.33 523.91 448.44 534.81
  Q 453.51 548.28 454.25 557.25
  Q 454.75 563.30 452.95 576.00
  L 442.44 576.00
  Q 445.78 552.98 435.69 532.13
  Q 431.48 523.42 430.81 521.44
  Q 430.11 519.36 429.09 517.90
  Q 428.28 516.75 426.22 515.33
  Q 413.92 506.84 402.69 501.81
  Q 358.71 482.12 316.09 459.65
  Q 314.83 458.99 314.40 457.91
  Q 314.35 454.93 316.79 454.25
  Z"
/>
<path fill="#efa886" d="
  M 413.79 497.00
  Q 426.03 503.13 437.03 511.26
  A 0.78 0.71 26.1 0 1 437.34 512.04
  Q 436.82 514.23 434.84 513.64
  Q 424.30 506.08 412.50 500.54
  Q 413.21 500.15 413.01 499.50
  Q 412.55 498.02 413.79 497.00
  Z"
/>
<path fill="#23020e" d="
  M 229.96 516.00
  Q 229.82 516.69 230.03 517.29
  A 0.72 0.69 59.5 0 1 229.85 518.05
  Q 229.16 518.69 229.15 519.68
  A 0.63 0.62 82.0 0 1 228.70 520.28
  Q 228.07 520.46 228.40 520.91
  Q 228.75 521.38 228.81 521.73
  Q 229.05 523.26 229.84 521.76
  A 0.65 0.63 20.6 0 1 230.55 521.45
  L 233.75 522.17
  A 1.30 0.73 -46.0 0 0 234.62 521.91
  Q 235.53 521.26 237.10 521.87
  Q 230.33 535.82 227.10 550.94
  Q 226.38 554.32 225.29 562.61
  Q 224.51 568.47 223.50 574.29
  L 215.37 569.91
  Q 217.71 549.45 222.57 530.43
  L 229.96 516.00
  Z"
/>
<path fill="#f67f5d" d="
  M 894.90 576.04
  L 862.19 576.00
  L 855.04 564.50
  Q 859.26 561.78 864.26 561.33
  Q 873.97 560.45 881.75 565.25
  Q 888.47 569.40 894.90 576.04
  Z"
/>
</svg>
