<?xml version="1.0" encoding="UTF-8" standalone="no"?>
<!DOCTYPE svg PUBLIC "-//W3C//DTD SVG 1.1//EN" "http://www.w3.org/Graphics/SVG/1.1/DTD/svg11.dtd">
<svg xmlns="http://www.w3.org/2000/svg" version="1.1" viewBox="0 0 806 805">
<g stroke-width="2.00" fill="none" stroke-linecap="butt">
<path stroke="#eac49a" vector-effect="non-scaling-stroke" d="
  M 236.29 256.25
  Q 179.25 310.40 122.53 364.88
  Q 113.95 373.12 108.52 379.15
  Q 98.49 390.29 90.06 401.56
  Q 74.70 422.11 65.19 446.29
  Q 61.80 454.91 59.23 462.18
  Q 56.26 470.61 54.50 478.50
  Q 48.32 506.23 49.29 535.35
  Q 49.54 542.86 50.72 553.10
  Q 52.18 565.73 53.25 570.75
  Q 61.12 607.53 80.53 639.71
  Q 86.29 649.25 93.48 657.77
  Q 98.26 663.43 102.93 669.18
  Q 108.59 676.15 112.79 680.17
  Q 120.93 687.94 133.19 697.81
  Q 158.14 717.90 184.43 728.59
  Q 214.63 740.86 246.81 745.13
  Q 256.45 746.41 266.75 746.59
  Q 289.96 747.00 309.50 743.75
  Q 337.73 739.06 366.15 726.22
  Q 375.45 722.02 383.94 717.11
  Q 400.49 707.53 413.44 696.44
  Q 426.24 685.48 441.31 670.81
  Q 475.87 637.19 526.56 589.06
  Q 542.99 573.47 549.54 567.00"
/>
<path stroke="#efbeb2" vector-effect="non-scaling-stroke" d="
  M 549.54 567.00
  Q 558.99 558.69 564.81 553.06
  Q 622.88 496.98 681.79 441.80
  Q 697.96 426.66 711.95 409.46
  Q 727.47 390.39 737.81 368.23
  Q 741.90 359.47 745.59 349.81
  Q 755.69 323.39 758.71 295.21
  Q 759.95 283.55 760.19 276.78
  Q 760.50 267.87 759.50 258.25
  Q 758.35 247.12 757.44 239.41
  Q 756.22 229.06 754.25 220.74
  Q 746.40 187.61 729.29 158.23
  Q 724.26 149.61 718.32 141.50
  Q 707.24 126.37 693.88 113.12
  Q 681.52 100.87 667.09 91.15
  Q 654.07 82.39 640.15 75.22
  Q 631.42 70.72 621.89 67.12
  Q 606.12 61.16 589.77 56.99
  Q 585.35 55.86 579.63 55.05
  Q 574.50 54.33 569.39 53.52
  Q 559.93 52.01 554.02 51.64
  Q 534.03 50.40 514.75 52.50
  Q 452.99 59.23 403.70 95.93
  Q 396.77 101.09 388.32 108.70
  Q 376.18 119.64 361.19 134.19
  Q 283.15 209.89 236.29 256.25"
/>
<path stroke="#df997e" vector-effect="non-scaling-stroke" d="
  M 549.54 567.00
  Q 536.52 552.78 522.50 539.54"
/>
<path stroke="#d9bac7" vector-effect="non-scaling-stroke" d="
  M 522.50 539.54
  Q 526.24 535.63 530.15 531.90
  Q 584.84 479.84 638.98 427.20
  Q 639.07 427.12 652.76 414.06
  Q 667.22 400.26 677.44 388.19
  Q 690.54 372.71 700.48 352.84
  Q 703.63 346.55 707.22 337.60
  Q 711.57 326.80 712.94 321.94
  Q 714.91 314.94 717.17 301.63
  Q 719.14 290.01 719.64 281.79
  Q 721.89 245.29 708.94 209.56
  Q 688.71 153.75 641.22 121.36
  Q 633.71 116.23 623.94 111.32
  Q 610.53 104.57 600.31 100.94
  Q 573.69 91.47 543.50 91.12
  Q 532.96 91.00 523.51 91.50
  Q 507.17 92.37 492.50 96.25
  Q 472.59 101.52 452.43 111.48
  Q 444.52 115.39 441.62 117.13
  Q 436.97 119.91 431.56 124.06
  Q 417.52 134.85 407.77 144.55
  Q 402.33 149.97 402.29 150.00
  Q 334.11 216.19 266.25 282.71"
/>
<path stroke="#df997e" vector-effect="non-scaling-stroke" d="
  M 266.25 282.71
  Q 265.04 282.16 264.81 281.94
  Q 251.04 268.55 236.29 256.25"
/>
<path stroke="#d4c0af" vector-effect="non-scaling-stroke" d="
  M 522.50 539.54
  Q 393.28 412.22 266.25 282.71"
/>
<path stroke="#e5eff9" vector-effect="non-scaling-stroke" d="
  M 516.46 149.01
  A 1.10 1.07 -89.5 0 0 517.45 150.05
  Q 538.75 151.45 559.06 159.94
  Q 582.62 169.78 599.92 182.29
  Q 644.22 214.32 664.54 265.06
  Q 664.55 265.10 665.30 267.08
  Q 667.68 273.39 672.83 279.01
  Q 673.54 279.79 673.80 278.77
  Q 674.63 275.56 674.99 272.61
  Q 675.31 270.07 675.02 266.37
  Q 673.90 252.02 672.19 245.56
  Q 664.20 215.52 643.31 189.69
  Q 629.84 173.03 614.19 161.78
  Q 609.47 158.39 601.40 153.80
  Q 593.56 149.35 588.19 146.56
  Q 577.48 141.00 564.70 138.00
  Q 540.69 132.35 516.24 135.68
  A 0.55 0.52 84.2 0 0 515.80 136.25
  L 516.46 149.01"
/>
<path stroke="#e4c7a8" vector-effect="non-scaling-stroke" d="
  M 89.04 511.00
  Q 87.87 524.89 88.40 538.78
  Q 88.79 548.91 90.78 558.60
  Q 94.78 577.95 102.43 596.26"
/>
<path stroke="#e5cdb1" vector-effect="non-scaling-stroke" d="
  M 102.43 596.26
  Q 108.75 611.76 116.19 622.81
  Q 121.67 630.95 129.89 640.75
  Q 136.24 648.30 143.62 655.26
  Q 154.23 665.25 162.94 671.81
  Q 188.09 690.77 220.56 701.19
  Q 224.39 702.42 227.28 703.12
  Q 231.49 704.14 233.99 704.90
  Q 241.07 707.07 248.42 707.84
  Q 250.29 708.03 262.57 708.68
  Q 271.60 709.16 276.75 709.00
  Q 286.00 708.72 301.50 706.99
  Q 306.26 706.46 309.94 705.65
  Q 314.69 704.60 318.19 703.44
  Q 322.89 701.87 347.17 692.55
  Q 361.35 687.10 372.94 679.19
  Q 390.99 666.86 407.44 650.44
  Q 419.00 638.89 468.07 591.57
  Q 483.86 576.34 500.90 561.05
  A 0.87 0.87 46.5 0 0 500.93 559.79
  Q 450.99 510.45 402.35 461.30
  Q 395.14 454.02 388.23 447.12
  Q 324.35 383.33 261.08 318.92
  Q 253.28 310.97 244.65 303.06
  A 0.82 0.80 44.4 0 0 243.55 303.06
  Q 193.61 350.09 144.50 398.50
  Q 132.57 410.25 123.56 421.56
  Q 111.09 437.23 103.27 456.76
  Q 96.83 472.85 94.00 483.00
  Q 90.74 494.67 89.04 511.00"
/>
<path stroke="#eff5f3" vector-effect="non-scaling-stroke" d="
  M 102.43 596.26
  L 107.73 591.91
  A 0.87 0.76 66.4 0 0 107.98 591.13
  Q 107.89 590.66 108.46 590.75"
/>
<path stroke="#f8fdfe" vector-effect="non-scaling-stroke" d="
  M 108.46 590.75
  Q 111.10 599.37 115.40 607.33
  Q 120.94 617.57 127.68 627.06
  Q 128.25 627.86 130.32 630.46
  Q 131.67 632.16 132.85 633.98
  Q 135.04 637.36 136.69 639.11
  Q 143.32 646.10 150.67 652.32
  Q 152.70 654.03 156.19 657.81
  Q 160.12 662.05 165.49 665.36
  Q 167.84 666.80 167.99 669.55
  Q 168.11 671.69 170.30 672.32
  Q 172.92 673.06 173.41 673.31
  Q 183.31 678.40 192.71 684.35
  Q 194.52 685.50 198.56 687.19
  Q 222.77 697.31 245.94 701.53
  Q 250.96 702.44 255.97 703.36
  Q 263.67 704.78 271.40 704.50
  Q 274.42 704.39 286.72 703.06
  Q 293.09 702.38 302.00 701.25
  Q 316.03 699.48 328.00 694.13
  Q 331.10 692.75 334.77 691.34
  Q 337.47 690.29 341.56 688.56
  Q 343.75 687.64 346.13 688.34
  Q 348.47 689.04 349.48 688.79
  Q 351.76 688.25 354.66 686.25
  A 1.36 1.33 -56.1 0 1 355.68 686.04
  Q 357.20 686.33 357.64 685.22
  Q 358.29 683.55 358.30 683.55
  Q 360.22 680.83 364.52 679.17
  A 2.58 2.58 -4.5 0 0 366.13 677.29
  Q 366.29 676.49 367.83 675.72
  Q 369.17 675.04 368.43 673.80
  A 1.65 1.63 32.0 0 1 368.20 672.83
  Q 368.26 671.94 369.08 671.49
  Q 373.42 669.13 377.75 666.75
  Q 378.71 666.22 379.87 664.86
  Q 380.87 663.70 381.95 662.99
  Q 385.25 660.83 388.21 658.24
  Q 391.70 655.18 394.27 653.31
  Q 403.69 646.42 410.94 637.94
  Q 413.81 634.58 416.70 631.90
  Q 416.94 631.67 422.50 626.28
  Q 425.10 623.77 428.16 621.78
  Q 429.28 621.06 430.28 620.13
  Q 431.27 619.21 432.33 618.37
  Q 436.62 615.00 440.60 611.29
  Q 447.84 604.55 448.57 603.89
  Q 460.47 593.34 472.27 582.68
  Q 475.39 579.85 481.51 574.62
  Q 487.40 569.58 490.56 566.31
  Q 492.99 563.81 490.04 562.83
  A 1.05 1.02 87.9 0 1 489.40 562.22
  Q 488.71 560.52 486.98 559.90
  A 1.98 1.37 -0.2 0 1 486.19 559.36
  Q 482.94 555.15 479.80 550.86
  Q 476.53 546.41 473.15 542.60
  Q 465.45 533.94 460.19 527.56
  Q 449.92 515.11 442.23 506.52
  Q 435.91 499.45 428.57 493.43
  Q 419.71 486.17 412.44 477.31
  Q 408.99 473.12 391.23 456.21
  Q 388.26 453.37 385.32 450.23
  Q 382.45 447.15 379.55 444.11
  Q 375.79 440.16 370.25 435.63
  Q 357.58 425.27 346.43 413.25
  Q 344.09 410.72 342.01 408.79
  Q 339.71 406.65 337.41 404.52
  Q 333.93 401.30 330.73 397.85
  Q 324.83 391.47 318.88 385.13
  Q 312.87 378.72 306.50 372.99
  Q 297.83 365.19 289.05 357.52
  Q 285.89 354.77 282.99 351.91
  Q 280.05 349.02 277.10 346.13
  Q 275.10 344.17 268.65 337.11
  Q 262.93 330.84 256.20 325.62
  Q 256.14 325.57 252.73 322.43
  Q 250.18 320.07 246.55 319.44
  A 2.84 2.84 -6.4 0 1 244.43 317.75
  Q 243.68 315.98 241.67 316.63
  Q 240.80 316.91 239.50 318.14
  Q 238.53 319.07 237.43 319.84
  Q 236.56 320.45 235.46 321.59
  Q 233.76 323.35 230.81 324.56
  Q 227.06 326.11 223.06 330.56
  Q 221.01 332.85 210.44 341.19
  Q 209.58 341.87 208.74 343.02
  Q 207.94 344.14 207.07 344.80
  Q 201.25 349.15 196.81 354.06
  Q 188.64 363.12 180.54 370.30
  Q 174.83 375.37 169.75 381.05
  Q 163.77 387.74 160.11 391.34
  Q 151.94 399.39 144.28 407.93
  Q 139.86 412.86 135.42 419.58
  Q 128.43 430.14 125.31 434.06
  Q 122.33 437.81 118.75 445.00
  Q 110.04 462.48 105.85 479.17
  Q 105.21 481.72 103.45 486.10
  Q 100.31 493.94 101.25 502.52
  Q 101.41 503.91 101.25 505.35
  Q 101.02 507.38 101.25 508.25
  Q 102.07 511.37 101.57 514.92"
/>
<path stroke="#eff5f3" vector-effect="non-scaling-stroke" d="
  M 101.57 514.92
  Q 95.56 511.32 89.04 511.00"
/>
<path stroke="#f6f7f4" vector-effect="non-scaling-stroke" d="
  M 108.46 590.75
  L 104.79 575.05
  Q 104.67 574.57 104.35 574.18
  Q 101.89 571.24 101.50 566.25
  Q 99.90 545.86 101.31 530.51
  Q 102.03 522.67 101.57 514.92"
/>
</g>
<path fill="#f9e9cd" d="
  M 0.00 0.00
  L 806.00 0.00
  L 806.00 805.00
  L 0.00 805.00
  L 0.00 0.00
  Z
  M 236.29 256.25
  Q 179.25 310.40 122.53 364.88
  Q 113.95 373.12 108.52 379.15
  Q 98.49 390.29 90.06 401.56
  Q 74.70 422.11 65.19 446.29
  Q 61.80 454.91 59.23 462.18
  Q 56.26 470.61 54.50 478.50
  Q 48.32 506.23 49.29 535.35
  Q 49.54 542.86 50.72 553.10
  Q 52.18 565.73 53.25 570.75
  Q 61.12 607.53 80.53 639.71
  Q 86.29 649.25 93.48 657.77
  Q 98.26 663.43 102.93 669.18
  Q 108.59 676.15 112.79 680.17
  Q 120.93 687.94 133.19 697.81
  Q 158.14 717.90 184.43 728.59
  Q 214.63 740.86 246.81 745.13
  Q 256.45 746.41 266.75 746.59
  Q 289.96 747.00 309.50 743.75
  Q 337.73 739.06 366.15 726.22
  Q 375.45 722.02 383.94 717.11
  Q 400.49 707.53 413.44 696.44
  Q 426.24 685.48 441.31 670.81
  Q 475.87 637.19 526.56 589.06
  Q 542.99 573.47 549.54 567.00
  Q 558.99 558.69 564.81 553.06
  Q 622.88 496.98 681.79 441.80
  Q 697.96 426.66 711.95 409.46
  Q 727.47 390.39 737.81 368.23
  Q 741.90 359.47 745.59 349.81
  Q 755.69 323.39 758.71 295.21
  Q 759.95 283.55 760.19 276.78
  Q 760.50 267.87 759.50 258.25
  Q 758.35 247.12 757.44 239.41
  Q 756.22 229.06 754.25 220.74
  Q 746.40 187.61 729.29 158.23
  Q 724.26 149.61 718.32 141.50
  Q 707.24 126.37 693.88 113.12
  Q 681.52 100.87 667.09 91.15
  Q 654.07 82.39 640.15 75.22
  Q 631.42 70.72 621.89 67.12
  Q 606.12 61.16 589.77 56.99
  Q 585.35 55.86 579.63 55.05
  Q 574.50 54.33 569.39 53.52
  Q 559.93 52.01 554.02 51.64
  Q 534.03 50.40 514.75 52.50
  Q 452.99 59.23 403.70 95.93
  Q 396.77 101.09 388.32 108.70
  Q 376.18 119.64 361.19 134.19
  Q 283.15 209.89 236.29 256.25
  Z"
/>
<path fill="#e49296" d="
  M 549.54 567.00
  Q 536.52 552.78 522.50 539.54
  Q 526.24 535.63 530.15 531.90
  Q 584.84 479.84 638.98 427.20
  Q 639.07 427.12 652.76 414.06
  Q 667.22 400.26 677.44 388.19
  Q 690.54 372.71 700.48 352.84
  Q 703.63 346.55 707.22 337.60
  Q 711.57 326.80 712.94 321.94
  Q 714.91 314.94 717.17 301.63
  Q 719.14 290.01 719.64 281.79
  Q 721.89 245.29 708.94 209.56
  Q 688.71 153.75 641.22 121.36
  Q 633.71 116.23 623.94 111.32
  Q 610.53 104.57 600.31 100.94
  Q 573.69 91.47 543.50 91.12
  Q 532.96 91.00 523.51 91.50
  Q 507.17 92.37 492.50 96.25
  Q 472.59 101.52 452.43 111.48
  Q 444.52 115.39 441.62 117.13
  Q 436.97 119.91 431.56 124.06
  Q 417.52 134.85 407.77 144.55
  Q 402.33 149.97 402.29 150.00
  Q 334.11 216.19 266.25 282.71
  Q 265.04 282.16 264.81 281.94
  Q 251.04 268.55 236.29 256.25
  Q 283.15 209.89 361.19 134.19
  Q 376.18 119.64 388.32 108.70
  Q 396.77 101.09 403.70 95.93
  Q 452.99 59.23 514.75 52.50
  Q 534.03 50.40 554.02 51.64
  Q 559.93 52.01 569.39 53.52
  Q 574.50 54.33 579.63 55.05
  Q 585.35 55.86 589.77 56.99
  Q 606.12 61.16 621.89 67.12
  Q 631.42 70.72 640.15 75.22
  Q 654.07 82.39 667.09 91.15
  Q 681.52 100.87 693.88 113.12
  Q 707.24 126.37 718.32 141.50
  Q 724.26 149.61 729.29 158.23
  Q 746.40 187.61 754.25 220.74
  Q 756.22 229.06 757.44 239.41
  Q 758.35 247.12 759.50 258.25
  Q 760.50 267.87 760.19 276.78
  Q 759.95 283.55 758.71 295.21
  Q 755.69 323.39 745.59 349.81
  Q 741.90 359.47 737.81 368.23
  Q 727.47 390.39 711.95 409.46
  Q 697.96 426.66 681.79 441.80
  Q 622.88 496.98 564.81 553.06
  Q 558.99 558.69 549.54 567.00
  Z"
/>
<path fill="#cde1f8" d="
  M 522.50 539.54
  Q 393.28 412.22 266.25 282.71
  Q 334.11 216.19 402.29 150.00
  Q 402.33 149.97 407.77 144.55
  Q 417.52 134.85 431.56 124.06
  Q 436.97 119.91 441.62 117.13
  Q 444.52 115.39 452.43 111.48
  Q 472.59 101.52 492.50 96.25
  Q 507.17 92.37 523.51 91.50
  Q 532.96 91.00 543.50 91.12
  Q 573.69 91.47 600.31 100.94
  Q 610.53 104.57 623.94 111.32
  Q 633.71 116.23 641.22 121.36
  Q 688.71 153.75 708.94 209.56
  Q 721.89 245.29 719.64 281.79
  Q 719.14 290.01 717.17 301.63
  Q 714.91 314.94 712.94 321.94
  Q 711.57 326.80 707.22 337.60
  Q 703.63 346.55 700.48 352.84
  Q 690.54 372.71 677.44 388.19
  Q 667.22 400.26 652.76 414.06
  Q 639.07 427.12 638.98 427.20
  Q 584.84 479.84 530.15 531.90
  Q 526.24 535.63 522.50 539.54
  Z
  M 516.46 149.01
  A 1.10 1.07 -89.5 0 0 517.45 150.05
  Q 538.75 151.45 559.06 159.94
  Q 582.62 169.78 599.92 182.29
  Q 644.22 214.32 664.54 265.06
  Q 664.55 265.10 665.30 267.08
  Q 667.68 273.39 672.83 279.01
  Q 673.54 279.79 673.80 278.77
  Q 674.63 275.56 674.99 272.61
  Q 675.31 270.07 675.02 266.37
  Q 673.90 252.02 672.19 245.56
  Q 664.20 215.52 643.31 189.69
  Q 629.84 173.03 614.19 161.78
  Q 609.47 158.39 601.40 153.80
  Q 593.56 149.35 588.19 146.56
  Q 577.48 141.00 564.70 138.00
  Q 540.69 132.35 516.24 135.68
  A 0.55 0.52 84.2 0 0 515.80 136.25
  L 516.46 149.01
  Z"
/>
<path fill="#fdfdf9" d="
  M 516.46 149.01
  L 515.80 136.25
  A 0.55 0.52 84.2 0 1 516.24 135.68
  Q 540.69 132.35 564.70 138.00
  Q 577.48 141.00 588.19 146.56
  Q 593.56 149.35 601.40 153.80
  Q 609.47 158.39 614.19 161.78
  Q 629.84 173.03 643.31 189.69
  Q 664.20 215.52 672.19 245.56
  Q 673.90 252.02 675.02 266.37
  Q 675.31 270.07 674.99 272.61
  Q 674.63 275.56 673.80 278.77
  Q 673.54 279.79 672.83 279.01
  Q 667.68 273.39 665.30 267.08
  Q 664.55 265.10 664.54 265.06
  Q 644.22 214.32 599.92 182.29
  Q 582.62 169.78 559.06 159.94
  Q 538.75 151.45 517.45 150.05
  A 1.10 1.07 -89.5 0 1 516.46 149.01
  Z"
/>
<path fill="#da9f66" d="
  M 236.29 256.25
  Q 251.04 268.55 264.81 281.94
  Q 265.04 282.16 266.25 282.71
  Q 393.28 412.22 522.50 539.54
  Q 536.52 552.78 549.54 567.00
  Q 542.99 573.47 526.56 589.06
  Q 475.87 637.19 441.31 670.81
  Q 426.24 685.48 413.44 696.44
  Q 400.49 707.53 383.94 717.11
  Q 375.45 722.02 366.15 726.22
  Q 337.73 739.06 309.50 743.75
  Q 289.96 747.00 266.75 746.59
  Q 256.45 746.41 246.81 745.13
  Q 214.63 740.86 184.43 728.59
  Q 158.14 717.90 133.19 697.81
  Q 120.93 687.94 112.79 680.17
  Q 108.59 676.15 102.93 669.18
  Q 98.26 663.43 93.48 657.77
  Q 86.29 649.25 80.53 639.71
  Q 61.12 607.53 53.25 570.75
  Q 52.18 565.73 50.72 553.10
  Q 49.54 542.86 49.29 535.35
  Q 48.32 506.23 54.50 478.50
  Q 56.26 470.61 59.23 462.18
  Q 61.80 454.91 65.19 446.29
  Q 74.70 422.11 90.06 401.56
  Q 98.49 390.29 108.52 379.15
  Q 113.95 373.12 122.53 364.88
  Q 179.25 310.40 236.29 256.25
  Z
  M 89.04 511.00
  Q 87.87 524.89 88.40 538.78
  Q 88.79 548.91 90.78 558.60
  Q 94.78 577.95 102.43 596.26
  Q 108.75 611.76 116.19 622.81
  Q 121.67 630.95 129.89 640.75
  Q 136.24 648.30 143.62 655.26
  Q 154.23 665.25 162.94 671.81
  Q 188.09 690.77 220.56 701.19
  Q 224.39 702.42 227.28 703.12
  Q 231.49 704.14 233.99 704.90
  Q 241.07 707.07 248.42 707.84
  Q 250.29 708.03 262.57 708.68
  Q 271.60 709.16 276.75 709.00
  Q 286.00 708.72 301.50 706.99
  Q 306.26 706.46 309.94 705.65
  Q 314.69 704.60 318.19 703.44
  Q 322.89 701.87 347.17 692.55
  Q 361.35 687.10 372.94 679.19
  Q 390.99 666.86 407.44 650.44
  Q 419.00 638.89 468.07 591.57
  Q 483.86 576.34 500.90 561.05
  A 0.87 0.87 46.5 0 0 500.93 559.79
  Q 450.99 510.45 402.35 461.30
  Q 395.14 454.02 388.23 447.12
  Q 324.35 383.33 261.08 318.92
  Q 253.28 310.97 244.65 303.06
  A 0.82 0.80 44.4 0 0 243.55 303.06
  Q 193.61 350.09 144.50 398.50
  Q 132.57 410.25 123.56 421.56
  Q 111.09 437.23 103.27 456.76
  Q 96.83 472.85 94.00 483.00
  Q 90.74 494.67 89.04 511.00
  Z"
/>
<path fill="#f0fbfc" d="
  M 102.43 596.26
  L 107.73 591.91
  A 0.87 0.76 66.4 0 0 107.98 591.13
  Q 107.89 590.66 108.46 590.75
  Q 111.10 599.37 115.40 607.33
  Q 120.94 617.57 127.68 627.06
  Q 128.25 627.86 130.32 630.46
  Q 131.67 632.16 132.85 633.98
  Q 135.04 637.36 136.69 639.11
  Q 143.32 646.10 150.67 652.32
  Q 152.70 654.03 156.19 657.81
  Q 160.12 662.05 165.49 665.36
  Q 167.84 666.80 167.99 669.55
  Q 168.11 671.69 170.30 672.32
  Q 172.92 673.06 173.41 673.31
  Q 183.31 678.40 192.71 684.35
  Q 194.52 685.50 198.56 687.19
  Q 222.77 697.31 245.94 701.53
  Q 250.96 702.44 255.97 703.36
  Q 263.67 704.78 271.40 704.50
  Q 274.42 704.39 286.72 703.06
  Q 293.09 702.38 302.00 701.25
  Q 316.03 699.48 328.00 694.13
  Q 331.10 692.75 334.77 691.34
  Q 337.47 690.29 341.56 688.56
  Q 343.75 687.64 346.13 688.34
  Q 348.47 689.04 349.48 688.79
  Q 351.76 688.25 354.66 686.25
  A 1.36 1.33 -56.1 0 1 355.68 686.04
  Q 357.20 686.33 357.64 685.22
  Q 358.29 683.55 358.30 683.55
  Q 360.22 680.83 364.52 679.17
  A 2.58 2.58 -4.5 0 0 366.13 677.29
  Q 366.29 676.49 367.83 675.72
  Q 369.17 675.04 368.43 673.80
  A 1.65 1.63 32.0 0 1 368.20 672.83
  Q 368.26 671.94 369.08 671.49
  Q 373.42 669.13 377.75 666.75
  Q 378.71 666.22 379.87 664.86
  Q 380.87 663.70 381.95 662.99
  Q 385.25 660.83 388.21 658.24
  Q 391.70 655.18 394.27 653.31
  Q 403.69 646.42 410.94 637.94
  Q 413.81 634.58 416.70 631.90
  Q 416.94 631.67 422.50 626.28
  Q 425.10 623.77 428.16 621.78
  Q 429.28 621.06 430.28 620.13
  Q 431.27 619.21 432.33 618.37
  Q 436.62 615.00 440.60 611.29
  Q 447.84 604.55 448.57 603.89
  Q 460.47 593.34 472.27 582.68
  Q 475.39 579.85 481.51 574.62
  Q 487.40 569.58 490.56 566.31
  Q 492.99 563.81 490.04 562.83
  A 1.05 1.02 87.9 0 1 489.40 562.22
  Q 488.71 560.52 486.98 559.90
  A 1.98 1.37 -0.2 0 1 486.19 559.36
  Q 482.94 555.15 479.80 550.86
  Q 476.53 546.41 473.15 542.60
  Q 465.45 533.94 460.19 527.56
  Q 449.92 515.11 442.23 506.52
  Q 435.91 499.45 428.57 493.43
  Q 419.71 486.17 412.44 477.31
  Q 408.99 473.12 391.23 456.21
  Q 388.26 453.37 385.32 450.23
  Q 382.45 447.15 379.55 444.11
  Q 375.79 440.16 370.25 435.63
  Q 357.58 425.27 346.43 413.25
  Q 344.09 410.72 342.01 408.79
  Q 339.71 406.65 337.41 404.52
  Q 333.93 401.30 330.73 397.85
  Q 324.83 391.47 318.88 385.13
  Q 312.87 378.72 306.50 372.99
  Q 297.83 365.19 289.05 357.52
  Q 285.89 354.77 282.99 351.91
  Q 280.05 349.02 277.10 346.13
  Q 275.10 344.17 268.65 337.11
  Q 262.93 330.84 256.20 325.62
  Q 256.14 325.57 252.73 322.43
  Q 250.18 320.07 246.55 319.44
  A 2.84 2.84 -6.4 0 1 244.43 317.75
  Q 243.68 315.98 241.67 316.63
  Q 240.80 316.91 239.50 318.14
  Q 238.53 319.07 237.43 319.84
  Q 236.56 320.45 235.46 321.59
  Q 233.76 323.35 230.81 324.56
  Q 227.06 326.11 223.06 330.56
  Q 221.01 332.85 210.44 341.19
  Q 209.58 341.87 208.74 343.02
  Q 207.94 344.14 207.07 344.80
  Q 201.25 349.15 196.81 354.06
  Q 188.64 363.12 180.54 370.30
  Q 174.83 375.37 169.75 381.05
  Q 163.77 387.74 160.11 391.34
  Q 151.94 399.39 144.28 407.93
  Q 139.86 412.86 135.42 419.58
  Q 128.43 430.14 125.31 434.06
  Q 122.33 437.81 118.75 445.00
  Q 110.04 462.48 105.85 479.17
  Q 105.21 481.72 103.45 486.10
  Q 100.31 493.94 101.25 502.52
  Q 101.41 503.91 101.25 505.35
  Q 101.02 507.38 101.25 508.25
  Q 102.07 511.37 101.57 514.92
  Q 95.56 511.32 89.04 511.00
  Q 90.74 494.67 94.00 483.00
  Q 96.83 472.85 103.27 456.76
  Q 111.09 437.23 123.56 421.56
  Q 132.57 410.25 144.50 398.50
  Q 193.61 350.09 243.55 303.06
  A 0.82 0.80 44.4 0 1 244.65 303.06
  Q 253.28 310.97 261.08 318.92
  Q 324.35 383.33 388.23 447.12
  Q 395.14 454.02 402.35 461.30
  Q 450.99 510.45 500.93 559.79
  A 0.87 0.87 46.5 0 1 500.90 561.05
  Q 483.86 576.34 468.07 591.57
  Q 419.00 638.89 407.44 650.44
  Q 390.99 666.86 372.94 679.19
  Q 361.35 687.10 347.17 692.55
  Q 322.89 701.87 318.19 703.44
  Q 314.69 704.60 309.94 705.65
  Q 306.26 706.46 301.50 706.99
  Q 286.00 708.72 276.75 709.00
  Q 271.60 709.16 262.57 708.68
  Q 250.29 708.03 248.42 707.84
  Q 241.07 707.07 233.99 704.90
  Q 231.49 704.14 227.28 703.12
  Q 224.39 702.42 220.56 701.19
  Q 188.09 690.77 162.94 671.81
  Q 154.23 665.25 143.62 655.26
  Q 136.24 648.30 129.89 640.75
  Q 121.67 630.95 116.19 622.81
  Q 108.75 611.76 102.43 596.26
  Z"
/>
<path fill="#ffffff" d="
  M 108.46 590.75
  L 104.79 575.05
  Q 104.67 574.57 104.35 574.18
  Q 101.89 571.24 101.50 566.25
  Q 99.90 545.86 101.31 530.51
  Q 102.03 522.67 101.57 514.92
  Q 102.07 511.37 101.25 508.25
  Q 101.02 507.38 101.25 505.35
  Q 101.41 503.91 101.25 502.52
  Q 100.31 493.94 103.45 486.10
  Q 105.21 481.72 105.85 479.17
  Q 110.04 462.48 118.75 445.00
  Q 122.33 437.81 125.31 434.06
  Q 128.43 430.14 135.42 419.58
  Q 139.86 412.86 144.28 407.93
  Q 151.94 399.39 160.11 391.34
  Q 163.77 387.74 169.75 381.05
  Q 174.83 375.37 180.54 370.30
  Q 188.64 363.12 196.81 354.06
  Q 201.25 349.15 207.07 344.80
  Q 207.94 344.14 208.74 343.02
  Q 209.58 341.87 210.44 341.19
  Q 221.01 332.85 223.06 330.56
  Q 227.06 326.11 230.81 324.56
  Q 233.76 323.35 235.46 321.59
  Q 236.56 320.45 237.43 319.84
  Q 238.53 319.07 239.50 318.14
  Q 240.80 316.91 241.67 316.63
  Q 243.68 315.98 244.43 317.75
  A 2.84 2.84 -6.4 0 0 246.55 319.44
  Q 250.18 320.07 252.73 322.43
  Q 256.14 325.57 256.20 325.62
  Q 262.93 330.84 268.65 337.11
  Q 275.10 344.17 277.10 346.13
  Q 280.05 349.02 282.99 351.91
  Q 285.89 354.77 289.05 357.52
  Q 297.83 365.19 306.50 372.99
  Q 312.87 378.72 318.88 385.13
  Q 324.83 391.47 330.73 397.85
  Q 333.93 401.30 337.41 404.52
  Q 339.71 406.65 342.01 408.79
  Q 344.09 410.72 346.43 413.25
  Q 357.58 425.27 370.25 435.63
  Q 375.79 440.16 379.55 444.11
  Q 382.45 447.15 385.32 450.23
  Q 388.26 453.37 391.23 456.21
  Q 408.99 473.12 412.44 477.31
  Q 419.71 486.17 428.57 493.43
  Q 435.91 499.45 442.23 506.52
  Q 449.92 515.11 460.19 527.56
  Q 465.45 533.94 473.15 542.60
  Q 476.53 546.41 479.80 550.86
  Q 482.94 555.15 486.19 559.36
  A 1.98 1.37 -0.2 0 0 486.98 559.90
  Q 488.71 560.52 489.40 562.22
  A 1.05 1.02 87.9 0 0 490.04 562.83
  Q 492.99 563.81 490.56 566.31
  Q 487.40 569.58 481.51 574.62
  Q 475.39 579.85 472.27 582.68
  Q 460.47 593.34 448.57 603.89
  Q 447.84 604.55 440.60 611.29
  Q 436.62 615.00 432.33 618.37
  Q 431.27 619.21 430.28 620.13
  Q 429.28 621.06 428.16 621.78
  Q 425.10 623.77 422.50 626.28
  Q 416.94 631.67 416.70 631.90
  Q 413.81 634.58 410.94 637.94
  Q 403.69 646.42 394.27 653.31
  Q 391.70 655.18 388.21 658.24
  Q 385.25 660.83 381.95 662.99
  Q 380.87 663.70 379.87 664.86
  Q 378.71 666.22 377.75 666.75
  Q 373.42 669.13 369.08 671.49
  Q 368.26 671.94 368.20 672.83
  A 1.65 1.63 32.0 0 0 368.43 673.80
  Q 369.17 675.04 367.83 675.72
  Q 366.29 676.49 366.13 677.29
  A 2.58 2.58 -4.5 0 1 364.52 679.17
  Q 360.22 680.83 358.30 683.55
  Q 358.29 683.55 357.64 685.22
  Q 357.20 686.33 355.68 686.04
  A 1.36 1.33 -56.1 0 0 354.66 686.25
  Q 351.76 688.25 349.48 688.79
  Q 348.47 689.04 346.13 688.34
  Q 343.75 687.64 341.56 688.56
  Q 337.47 690.29 334.77 691.34
  Q 331.10 692.75 328.00 694.13
  Q 316.03 699.48 302.00 701.25
  Q 293.09 702.38 286.72 703.06
  Q 274.42 704.39 271.40 704.50
  Q 263.67 704.78 255.97 703.36
  Q 250.96 702.44 245.94 701.53
  Q 222.77 697.31 198.56 687.19
  Q 194.52 685.50 192.71 684.35
  Q 183.31 678.40 173.41 673.31
  Q 172.92 673.06 170.30 672.32
  Q 168.11 671.69 167.99 669.55
  Q 167.84 666.80 165.49 665.36
  Q 160.12 662.05 156.19 657.81
  Q 152.70 654.03 150.67 652.32
  Q 143.32 646.10 136.69 639.11
  Q 135.04 637.36 132.85 633.98
  Q 131.67 632.16 130.32 630.46
  Q 128.25 627.86 127.68 627.06
  Q 120.94 617.57 115.40 607.33
  Q 111.10 599.37 108.46 590.75
  Z"
/>
<path fill="#edefe9" d="
  M 89.04 511.00
  Q 95.56 511.32 101.57 514.92
  Q 102.03 522.67 101.31 530.51
  Q 99.90 545.86 101.50 566.25
  Q 101.89 571.24 104.35 574.18
  Q 104.67 574.57 104.79 575.05
  L 108.46 590.75
  Q 107.89 590.66 107.98 591.13
  A 0.87 0.76 66.4 0 1 107.73 591.91
  L 102.43 596.26
  Q 94.78 577.95 90.78 558.60
  Q 88.79 548.91 88.40 538.78
  Q 87.87 524.89 89.04 511.00
  Z"
/>
</svg>
